<?xml version="1.0" encoding="UTF-8"?>
<svg version="1.1" xmlns="http://www.w3.org/2000/svg" width="500" height="353">
<path d="M0 0 C13.17821203 3.67764057 23.2510709 27.91582957 29.65625 39.2265625 C33.87373739 47.10559577 33.87373739 47.10559577 33.05078125 49.953125 C31.55440074 51.92543169 30.39647684 52.73141176 28.1875 53.8125 C25.22854841 55.2731689 24.64713157 55.81055265 22.6875 58.75 C21.02529419 59.75739746 19.35729326 60.75522955 17.6875 61.75 C15.45466986 63.48023737 13.25524004 65.24572548 11.06640625 67.03125 C8.39775457 68.95933988 5.63910092 70.29667366 2.6875 71.75 C-5.47991783 76.82019191 -13.09470701 82.51566538 -20.55078125 88.56640625 C-21.29714844 89.16324219 -22.04351562 89.76007813 -22.8125 90.375 C-23.78703125 91.16777344 -23.78703125 91.16777344 -24.78125 91.9765625 C-27.71773392 94.03391389 -30.7771843 95.71267911 -33.921875 97.42919922 C-37.69871588 99.51587295 -41.38086337 101.75071788 -45.0625 104 C-45.84906982 104.47816162 -46.63563965 104.95632324 -47.44604492 105.44897461 C-51.98806442 108.2362598 -56.3303246 111.16008507 -60.625 114.3125 C-70.54792024 121.32654388 -89.87846331 133.75 -102.3125 133.75 C-102.3125 123.19 -102.3125 112.63 -102.3125 101.75 C-106.65168305 105.18739087 -106.65168305 105.18739087 -110.98681641 108.62988281 C-114.65522095 111.52402439 -118.40367274 114.18325935 -122.3125 116.75 C-123.323125 117.554375 -124.33375 118.35875 -125.375 119.1875 C-128.51557653 121.46218453 -131.66577054 122.70110371 -135.3125 124 C-143.90982823 127.12811247 -152.45094128 131.77620418 -159.55859375 137.5859375 C-160.13738281 137.97007812 -160.71617187 138.35421875 -161.3125 138.75 C-162.3025 138.42 -163.2925 138.09 -164.3125 137.75 C-162.94983356 133.71194134 -161.1715849 131.20631882 -158.25 128.125 C-154.2183217 123.77181626 -150.43417476 119.28741094 -146.703125 114.67578125 C-144.07224645 111.45596421 -141.38506768 108.28887072 -138.6875 105.125 C-134.97365233 100.76387809 -131.3937651 96.3328989 -127.9140625 91.78125 C-126.3223793 89.76252985 -124.6543625 87.85035137 -122.9375 85.9375 C-119.21667429 81.75053058 -115.91875833 77.28630399 -112.58984375 72.78515625 C-109.83367254 69.11183715 -106.95559471 65.55055344 -104.0390625 62.00390625 C-102.22837736 59.74813983 -102.22837736 59.74813983 -100.7734375 57.02734375 C-99.3125 54.75 -99.3125 54.75 -96.3125 53.75 C-92.69969871 54.49617334 -90.83955818 55.0862971 -88.51953125 58.0078125 C-84.16698814 66.95673866 -81.3125 76.71238653 -81.3125 86.75 C-75.71282622 81.95497249 -75.71282622 81.95497249 -70.4375 76.8125 C-68.3125 74.75 -68.3125 74.75 -66.3125 74.75 C-66.3125 74.09 -66.3125 73.43 -66.3125 72.75 C-62.85096154 69.75 -62.85096154 69.75 -60.3125 69.75 C-59.3225 67.77 -59.3225 67.77 -58.3125 65.75 C-57.6525 65.75 -56.9925 65.75 -56.3125 65.75 C-56.07917969 65.17765625 -55.84585938 64.6053125 -55.60546875 64.015625 C-54.00469161 61.21063786 -52.08183349 59.59188273 -49.625 57.5 C-44.19016187 52.73370201 -39.32945913 47.7754387 -35.3125 41.75 C-34.6525 41.75 -33.9925 41.75 -33.3125 41.75 C-33.07789063 40.87859375 -32.84328125 40.0071875 -32.6015625 39.109375 C-31.15088748 35.32882797 -29.3442806 33.04337096 -26.6875 30 C-25.78163572 28.94870557 -24.87670042 27.89661002 -23.97265625 26.84375 C-23.52293457 26.32425781 -23.07321289 25.80476563 -22.60986328 25.26953125 C-20.72267667 23.05917192 -18.9245145 20.7819675 -17.125 18.5 C-14.13445622 14.73614389 -11.04487213 11.09091506 -7.8359375 7.51171875 C-6.13608814 5.60329009 -6.13608814 5.60329009 -4.1875 2.75 C-2.3125 0.75 -2.3125 0.75 0 0 Z " fill="#B02E2E" transform="translate(359.3125,19.25)"/>
<path d="M0 0 C0.598125 0.20625 1.19625 0.4125 1.8125 0.625 C1.5625 3 1.5625 3 0.8125 5.625 C0.18585449 5.93638916 -0.44079102 6.24777832 -1.08642578 6.56860352 C-3.54245001 7.80346487 -4.20935036 8.79032214 -5.5546875 11.15234375 C-5.96275635 11.8572998 -6.3708252 12.56225586 -6.79125977 13.28857422 C-7.21076904 14.03896973 -7.63027832 14.78936523 -8.0625 15.5625 C-8.49941162 16.32578613 -8.93632324 17.08907227 -9.38647461 17.87548828 C-10.66559836 20.11874357 -11.92889088 22.37018455 -13.1875 24.625 C-13.83074219 25.76839844 -14.47398437 26.91179687 -15.13671875 28.08984375 C-17.99748496 33.20726056 -17.99748496 33.20726056 -20.1875 38.625 C-18.8571875 38.13 -18.8571875 38.13 -17.5 37.625 C-14.44800138 36.70364193 -12.3329732 36.27550298 -9.1875 36.625 C-6.3889095 39.4235905 -6.35574841 42.47036325 -5.78515625 46.23828125 C-5.6619249 47.00367722 -5.53869354 47.76907318 -5.41172791 48.55766296 C-5.0167869 51.01645503 -4.63263122 53.47676467 -4.25 55.9375 C-2.31854537 68.23496192 -0.30757808 80.40195023 3.1875 92.375 C4.24187261 97.20903037 3.38836539 101.39840398 0.8125 105.625 C-3.38547045 108.01021048 -7.43219285 107.81521229 -12.1875 107.625 C-15.08816729 101.7751863 -16.00040319 96.32812242 -16.75 89.875 C-16.99549189 87.91252131 -17.24286588 85.95027707 -17.4921875 83.98828125 C-17.60916992 83.05838379 -17.72615234 82.12848633 -17.84667969 81.17041016 C-18.36088123 77.33010554 -19.06880436 73.53871151 -19.85546875 69.74609375 C-20.23113551 67.34624607 -20.24290873 65.05019737 -20.1875 62.625 C-19.5275 62.625 -18.8675 62.625 -18.1875 62.625 C-18.5175 61.635 -18.8475 60.645 -19.1875 59.625 C-26.28575584 76.67464977 -26.28575584 76.67464977 -30.1875 94.625 C-30.8475 94.625 -31.5075 94.625 -32.1875 94.625 C-32.6825 96.605 -32.6825 96.605 -33.1875 98.625 C-35.4375 98.9375 -35.4375 98.9375 -38.1875 98.625 C-41.49880661 95.62412839 -43.01501868 91.937594 -44.8125 87.92578125 C-45.25851563 86.93360596 -45.70453125 85.94143066 -46.1640625 84.91918945 C-46.67066406 83.78356567 -46.67066406 83.78356567 -47.1875 82.625 C-47.13625977 83.43130859 -47.08501953 84.23761719 -47.03222656 85.06835938 C-46.81106706 88.75294015 -46.62401884 92.43850992 -46.4375 96.125 C-46.35628906 97.3934375 -46.27507812 98.661875 -46.19140625 99.96875 C-45.84089192 107.44638905 -46.06139998 112.29191625 -50.1875 118.625 C-50.8475 118.625 -51.5075 118.625 -52.1875 118.625 C-52.6825 120.11 -52.6825 120.11 -53.1875 121.625 C-57.9375 122.75 -57.9375 122.75 -60.1875 121.625 C-60.1875 122.285 -60.1875 122.945 -60.1875 123.625 C-66.26257508 126.60297798 -66.26257508 126.60297798 -69.8125 126.6875 C-76.08754135 123.88024466 -78.72656352 116.90198623 -81.25 110.9375 C-81.59216553 110.14456543 -81.93433105 109.35163086 -82.28686523 108.53466797 C-89.76228434 91.05702778 -89.76228434 91.05702778 -88.1875 86.625 C-87.8575 85.965 -87.5275 85.305 -87.1875 84.625 C-92.58989686 87.18185958 -96.37969422 89.62461779 -98.671875 95.30078125 C-99.76698841 99.3645109 -100.49725403 103.47530697 -101.1875 107.625 C-104.48233283 125.89194082 -104.48233283 125.89194082 -111.1875 130.625 C-114.4375 131.375 -114.4375 131.375 -117.1875 131.625 C-118.328125 130.109375 -118.328125 130.109375 -119.1875 127.625 C-118.56524504 124.91290763 -117.86224212 122.479771 -116.9375 119.875 C-116.47162377 118.50600058 -116.00807806 117.13620584 -115.546875 115.765625 C-115.31806641 115.09080078 -115.08925781 114.41597656 -114.85351562 113.72070312 C-113.79607461 110.39333009 -112.99462321 107.02100898 -112.1875 103.625 C-112.89003906 104.2025 -113.59257813 104.78 -114.31640625 105.375 C-117.17258282 107.6133098 -120.09559638 109.62879067 -123.125 111.625 C-124.62353516 112.615 -124.62353516 112.615 -126.15234375 113.625 C-127.65474609 114.615 -127.65474609 114.615 -129.1875 115.625 C-130.25355469 116.37265625 -131.31960937 117.1203125 -132.41796875 117.890625 C-135.1875 119.625 -135.1875 119.625 -137.5625 119.375 C-138.366875 119.00375 -138.366875 119.00375 -139.1875 118.625 C-138.8260266 116.12126512 -138.57123518 114.93888047 -136.578125 113.30859375 C-135.87171875 112.89738281 -135.1653125 112.48617187 -134.4375 112.0625 C-129.51705684 108.98427076 -125.23735563 105.39580567 -120.88183594 101.58374023 C-118.2997697 99.3417763 -115.94586541 97.48196174 -112.98046875 95.7265625 C-106.54307508 90.88276139 -105.65793201 81.30366654 -103.75 73.875 C-101.62677235 65.61111169 -99.26444334 57.58838184 -96.1875 49.625 C-92.17348045 50.37553454 -89.4008593 50.9883975 -86.1875 53.625 C-84.59686264 56.53256115 -83.35098851 59.52453061 -82.1875 62.625 C-78.35057895 59.1266308 -75.66365975 55.44023667 -72.859375 51.08203125 C-71.07953357 48.46632971 -69.14142549 46.06214584 -67.125 43.625 C-64.18175849 39.99315104 -61.76256622 36.42934915 -59.59375 32.296875 C-57.72077431 28.73822119 -55.73143825 25.24910095 -53.75 21.75 C-50.17269397 15.40537207 -46.64964318 9.03335915 -43.1875 2.625 C-41.37890625 2.78515625 -41.37890625 2.78515625 -39.1875 3.625 C-34.73621812 10.23118117 -32.12402631 17.94684303 -30.1875 25.625 C-29.40375 24.965 -28.62 24.305 -27.8125 23.625 C-25.1875 21.625 -25.1875 21.625 -23.1875 21.625 C-22.95546875 21.05394531 -22.7234375 20.48289063 -22.484375 19.89453125 C-20.86903681 17.06768942 -18.91197467 15.42330188 -16.4375 13.3125 C-13.3106272 10.57817833 -10.40466067 7.88379169 -7.75 4.6875 C-3.34762239 -0.57387812 -3.34762239 -0.57387812 0 0 Z M-44.6953125 39.0859375 C-45.22898437 39.71757812 -45.76265625 40.34921875 -46.3125 41 C-46.85132813 41.62648438 -47.39015625 42.25296875 -47.9453125 42.8984375 C-49.38217147 44.54108428 -49.38217147 44.54108428 -49.1875 46.625 C-46.8775 46.955 -44.5675 47.285 -42.1875 47.625 C-41.1975 50.595 -40.2075 53.565 -39.1875 56.625 C-38.8575 56.625 -38.5275 56.625 -38.1875 56.625 C-38.81070121 50.18525419 -39.82758262 43.94927599 -41.1875 37.625 C-43.29802012 37.39304827 -43.29802012 37.39304827 -44.6953125 39.0859375 Z M-50.1875 46.625 C-50.8475 47.945 -51.5075 49.265 -52.1875 50.625 C-51.1975 49.965 -50.2075 49.305 -49.1875 48.625 C-49.5175 47.965 -49.8475 47.305 -50.1875 46.625 Z M-27.1875 47.625 C-26.1875 49.625 -26.1875 49.625 -26.1875 49.625 Z M-29.1875 50.625 C-30.8375 53.925 -32.4875 57.225 -34.1875 60.625 C-35.1775 60.625 -36.1675 60.625 -37.1875 60.625 C-36.5275 63.595 -35.8675 66.565 -35.1875 69.625 C-33.11802904 66.52079356 -31.86303856 63.5931325 -30.5 60.125 C-29.81357422 58.40796875 -29.81357422 58.40796875 -29.11328125 56.65625 C-27.86650752 53.62207569 -27.86650752 53.62207569 -29.1875 50.625 Z M-38.1875 56.625 C-37.1875 60.625 -37.1875 60.625 -37.1875 60.625 Z M-60.1875 57.625 C-62.53037418 60.29747634 -62.53037418 60.29747634 -63.1875 63.625 C-63.744375 63.83125 -64.30125 64.0375 -64.875 64.25 C-68.04740745 66.13629632 -69.86492698 68.77984805 -72.1875 71.625 C-74.5 73.5 -74.5 73.5 -76.1875 74.625 C-74.50488235 78.92317181 -72.66914752 83.14997176 -70.8125 87.375 C-70.50304443 88.08076172 -70.19358887 88.78652344 -69.87475586 89.51367188 C-67.66130258 94.55777466 -65.43300259 99.5950742 -63.1875 104.625 C-62.8575 104.625 -62.5275 104.625 -62.1875 104.625 C-62.22230469 103.69945312 -62.25710937 102.77390625 -62.29296875 101.8203125 C-62.55095779 91.1914342 -61.56596224 80.89804095 -60.16674805 70.36181641 C-60.02793213 69.28722168 -59.88911621 68.21262695 -59.74609375 67.10546875 C-59.61517334 66.14535889 -59.48425293 65.18524902 -59.34936523 64.19604492 C-59.19346114 61.71968596 -59.43072565 59.96992975 -60.1875 57.625 Z M-93.1875 71.625 C-92.8575 72.945 -92.5275 74.265 -92.1875 75.625 C-91.8575 74.965 -91.5275 74.305 -91.1875 73.625 C-91.8475 72.965 -92.5075 72.305 -93.1875 71.625 Z M-47.1875 74.625 C-47.1875 75.945 -47.1875 77.265 -47.1875 78.625 C-46.5275 78.625 -45.8675 78.625 -45.1875 78.625 C-45.8475 77.305 -46.5075 75.985 -47.1875 74.625 Z M-94.1875 75.625 C-93.1875 77.625 -93.1875 77.625 -93.1875 77.625 Z M-62.1875 105.625 C-61.5275 106.945 -60.8675 108.265 -60.1875 109.625 C-60.5175 108.305 -60.8475 106.985 -61.1875 105.625 C-61.5175 105.625 -61.8475 105.625 -62.1875 105.625 Z M-59.1875 111.625 C-58.1875 113.625 -58.1875 113.625 -58.1875 113.625 Z " fill="#B63B3B" transform="translate(192.1875,134.375)"/>
<path d="M0 0 C2.97 0.33 5.94 0.66 9 1 C9 2.32 9 3.64 9 5 C8.34 5 7.68 5 7 5 C9.60262519 25.32250719 9.60262519 25.32250719 14.05078125 45.29296875 C15.79614264 52.1092155 16.86624017 59.06001559 18 66 C16.68 66.33 15.36 66.66 14 67 C14.33 67.99 14.66 68.98 15 70 C10.18615099 73.81788025 4.89352231 73.70067925 -1 74 C-1.33 72.35 -1.66 70.7 -2 69 C-2.99 69 -3.98 69 -5 69 C-5.0825 69.61875 -5.165 70.2375 -5.25 70.875 C-6 73 -6 73 -7.6953125 74.08203125 C-10.37298661 75.14856246 -12.76154143 75.47584014 -15.625 75.8125 C-22.19956607 76.72832291 -28.39569786 78.3940445 -34.73095703 80.32348633 C-38.95349938 81.57545937 -42.54046575 82.26856149 -47 82 C-48.87295482 76.85147398 -50.00433146 71.67264848 -51.0625 66.3125 C-51.2380542 65.4248999 -51.4136084 64.5372998 -51.59448242 63.62280273 C-54.6141349 47.96614089 -54.6141349 47.96614089 -53.44921875 42.33984375 C-52.75214735 39.98917942 -52.75214735 39.98917942 -54 38 C-54.61875 39.11375 -55.2375 40.2275 -55.875 41.375 C-58.87805435 46.23543479 -62.778851 49.96913868 -66.890625 53.8984375 C-69.04207532 55.81916122 -69.04207532 55.81916122 -70 58 C-70.66 58 -71.32 58 -72 58 C-72.226875 58.721875 -72.45375 59.44375 -72.6875 60.1875 C-74 63 -74 63 -76.625 64.9375 C-80.07052545 69.3804144 -79.124498 73.19973261 -78.9296875 78.66015625 C-78.99401959 81.7159303 -79.12566212 83.31088033 -80.6875 85.875 C-83.51949314 88.47737208 -84.33155025 88 -88 88 C-90.35322796 90.90412546 -90.35322796 90.90412546 -92 94 C-93.485 93.505 -93.485 93.505 -95 93 C-98.02422641 84.9773994 -98.73610861 75.70477673 -99.91015625 67.24487305 C-100.58036221 62.47203557 -101.44957912 57.81182935 -102.53393555 53.11621094 C-103.21713356 50.01408398 -103.68085805 46.89424298 -104.125 43.75 C-104.29257813 42.58984375 -104.46015625 41.4296875 -104.6328125 40.234375 C-104.94967076 37.44332565 -105.06958084 34.80311366 -105 32 C-105 31.34 -105 30.68 -105 30 C-106.98 29.01 -108.96 28.02 -111 27 C-111 26.01 -111 25.02 -111 24 C-104.30269719 22.3256743 -96.53668858 22.82110381 -90 25 C-88.14688187 25.10407528 -86.29235279 25.18367065 -84.4375 25.25 C-78.5361792 25.65538352 -73.12698935 26.83677331 -67.4375 28.4375 C-66.66398193 28.6550293 -65.89046387 28.87255859 -65.09350586 29.09667969 C-61.55743521 30.1299597 -58.21928232 31.16406976 -55 33 C-54.89950796 29.48277846 -55.28113187 26.43459218 -56 23 C-56.36769712 20.33668034 -56.68321141 17.67007522 -57 15 C-56.360625 14.896875 -55.72125 14.79375 -55.0625 14.6875 C-54.381875 14.460625 -53.70125 14.23375 -53 14 C-52.67 13.01 -52.34 12.02 -52 11 C-50.35 11 -48.7 11 -47 11 C-46.505 11.99 -46.505 11.99 -46 13 C-45.36191406 12.98839844 -44.72382813 12.97679687 -44.06640625 12.96484375 C-43.24011719 12.95582031 -42.41382813 12.94679687 -41.5625 12.9375 C-40.73878906 12.92589844 -39.91507812 12.91429687 -39.06640625 12.90234375 C-37 13 -37 13 -36 14 C-35.7905639 15.97509873 -35.63196178 17.95571682 -35.5 19.9375 C-35.32264916 24.12167415 -35.32264916 24.12167415 -34 28 C-31.58676756 38.8088478 -30.96209634 49.99312294 -30 61 C-28.73542969 60.62746094 -27.47085938 60.25492188 -26.16796875 59.87109375 C-24.50794161 59.39278085 -22.84777818 58.91494079 -21.1875 58.4375 C-20.35412109 58.19064453 -19.52074219 57.94378906 -18.66210938 57.68945312 C-17.85966797 57.46064453 -17.05722656 57.23183594 -16.23046875 56.99609375 C-15.49207764 56.78138428 -14.75368652 56.5666748 -13.99291992 56.34545898 C-12 56 -12 56 -9 57 C-7.3125 60.0625 -7.3125 60.0625 -6 63 C-6.64975795 52.22298018 -8.77269529 41.80589486 -11.4140625 31.359375 C-11.65479492 30.38073486 -11.89552734 29.40209473 -12.14355469 28.39379883 C-12.62345847 26.45416102 -13.12095914 24.5187749 -13.63769531 22.58862305 C-14.70989041 18.22017371 -15.28505041 15.82134717 -13.78125 11.48828125 C-11.15626424 7.82136036 -8.51473086 5.59884708 -4.3125 3.9375 C-1.67379032 3.1202663 -1.67379032 3.1202663 0 0 Z M-88 35 C-87.52013969 40.56890517 -86.70084819 45.67067568 -85 51 C-84.360625 50.34 -83.72125 49.68 -83.0625 49 C-79.2170765 45.14346256 -75.09075581 41.59166578 -71 38 C-71.33 37.34 -71.66 36.68 -72 36 C-74.71446979 35.68758545 -77.33909361 35.48663408 -80.0625 35.375 C-81.20041992 35.31699219 -81.20041992 35.31699219 -82.36132812 35.2578125 C-84.24047195 35.16326438 -86.12020336 35.08053244 -88 35 Z " fill="#AF3535" transform="translate(300,142)"/>
<path d="M0 0 C11 2 11 2 13 4 C13.12719929 6.37241472 13.17587674 8.74920621 13.1875 11.125 C13.20167969 12.42695312 13.21585937 13.72890625 13.23046875 15.0703125 C12.99745851 19.0433346 12.14038333 22.20009452 11 26 C10.40271057 29.17378363 9.95057172 32.36497334 9.5 35.5625 C9.30881592 36.88314453 9.30881592 36.88314453 9.11376953 38.23046875 C8.85809409 39.99988468 8.60431271 41.76957545 8.35253906 43.53955078 C8.0439435 45.69330847 7.72478438 47.84496999 7.3984375 49.99609375 C6.59159634 55.39711255 5.91840319 60.73729621 5.5625 66.1875 C5.20492418 71.00200295 4.25957969 75.33987417 2.81640625 79.94140625 C1.83996141 83.59957041 1.19256603 87.27387494 0.53344727 91.00073242 C-4.04509946 116.74327089 -4.04509946 116.74327089 -8.671875 127.578125 C-11.15902443 133.98619235 -12.8338438 140.65876047 -14.66796875 147.27734375 C-15.67125036 150.89216096 -16.76778896 154.4552033 -18 158 C-18.66 158 -19.32 158 -20 158 C-20.103125 158.70125 -20.20625 159.4025 -20.3125 160.125 C-21.11186796 163.46781148 -22.2013433 166.06885575 -24 169 C-27.0598508 170.14996591 -30.00918043 170.10514236 -33.25 170.0625 C-34.14203125 170.05347656 -35.0340625 170.04445313 -35.953125 170.03515625 C-36.96632813 170.01775391 -36.96632813 170.01775391 -38 170 C-38.6041263 163.50564228 -36.63935261 158.18487888 -34.65039062 152.05224609 C-30.38308951 138.5871811 -26.88442031 124.89431632 -23.52734375 111.1796875 C-22.47472997 106.88248982 -21.37865042 102.59919 -20.25390625 98.3203125 C-19.97095703 97.23081299 -19.68800781 96.14131348 -19.39648438 95.01879883 C-18.85263388 92.92793565 -18.30091715 90.83909802 -17.74023438 88.75268555 C-17.49724609 87.80949463 -17.25425781 86.86630371 -17.00390625 85.89453125 C-16.78549072 85.06800049 -16.5670752 84.24146973 -16.34204102 83.38989258 C-15.5401791 77.78716144 -18.0397975 73.89135902 -20.9375 69.3125 C-24.52583322 63.49496221 -27.94835437 57.61005482 -31.25 51.625 C-31.64952881 50.90094971 -32.04905762 50.17689941 -32.46069336 49.4309082 C-33.24277428 48.01125252 -34.02379315 46.59101121 -34.80371094 45.17016602 C-36.07773489 42.85898256 -37.36718234 40.55672745 -38.65625 38.25390625 C-46.12895633 24.80303486 -46.12895633 24.80303486 -46 19 C-43.9375 15.625 -43.9375 15.625 -41 13 C-38 12.3125 -38 12.3125 -35 13 C-26.98118745 19.21457973 -22.40883263 29.67921043 -17.69067383 38.44018555 C-15.08772325 43.22876441 -12.25445794 47.62591571 -9 52 C-8.90203125 50.6903125 -8.8040625 49.380625 -8.703125 48.03125 C-7.87133697 37.6218517 -6.73417559 27.31025823 -5.0625 17 C-4.90491211 15.99259766 -4.74732422 14.98519531 -4.58496094 13.94726562 C-3.71074356 8.7720389 -2.68476466 4.52815007 0 0 Z " fill="#B22F2F" transform="translate(400,112)"/>
<path d="M0 0 C2.7985905 2.7985905 2.83175159 5.84536325 3.40234375 9.61328125 C3.58719078 10.7613752 3.58719078 10.7613752 3.77577209 11.93266296 C4.1707131 14.39145503 4.55486878 16.85176467 4.9375 19.3125 C6.86895463 31.60996192 8.87992192 43.77695023 12.375 55.75 C13.42937261 60.58403037 12.57586539 64.77340398 10 69 C5.80202955 71.38521048 1.75530715 71.19021229 -3 71 C-5.90066729 65.1501863 -6.81290319 59.70312242 -7.5625 53.25 C-7.80799189 51.28752131 -8.05536588 49.32527707 -8.3046875 47.36328125 C-8.42166992 46.43338379 -8.53865234 45.50348633 -8.65917969 44.54541016 C-9.17338123 40.70510554 -9.88130436 36.91371151 -10.66796875 33.12109375 C-11.04363551 30.72124607 -11.05540873 28.42519737 -11 26 C-10.34 26 -9.68 26 -9 26 C-9.495 24.515 -9.495 24.515 -10 23 C-17.09825584 40.04964977 -17.09825584 40.04964977 -21 58 C-21.66 58 -22.32 58 -23 58 C-23.33 59.32 -23.66 60.64 -24 62 C-26.25 62.3125 -26.25 62.3125 -29 62 C-32.31130661 58.99912839 -33.82751868 55.312594 -35.625 51.30078125 C-36.29402344 49.81251831 -36.29402344 49.81251831 -36.9765625 48.29418945 C-37.31429687 47.53710693 -37.65203125 46.78002441 -38 46 C-37.92313965 47.20946289 -37.92313965 47.20946289 -37.84472656 48.44335938 C-37.62356706 52.12794015 -37.43651884 55.81350992 -37.25 59.5 C-37.16878906 60.7684375 -37.08757812 62.036875 -37.00390625 63.34375 C-36.65339192 70.82138905 -36.87389998 75.66691625 -41 82 C-41.66 82 -42.32 82 -43 82 C-43.495 83.485 -43.495 83.485 -44 85 C-48.75 86.125 -48.75 86.125 -51 85 C-51 85.66 -51 86.32 -51 87 C-57.07507508 89.97797798 -57.07507508 89.97797798 -60.625 90.0625 C-66.90004135 87.25524466 -69.53906352 80.27698623 -72.0625 74.3125 C-72.40466553 73.51956543 -72.74683105 72.72663086 -73.09936523 71.90966797 C-80.57478434 54.43202778 -80.57478434 54.43202778 -79 50 C-78.67 49.34 -78.34 48.68 -78 48 C-79.32 48.99 -80.64 49.98 -82 51 C-82.66 50.67 -83.32 50.34 -84 50 C-82.37982158 48.66081194 -80.75370657 47.3288031 -79.125 46 C-78.22007813 45.2575 -77.31515625 44.515 -76.3828125 43.75 C-74 42 -74 42 -72 42 C-72 41.34 -72 40.68 -72 40 C-71.34 40.33 -70.68 40.66 -70 41 C-71.8125 43.5 -71.8125 43.5 -74 46 C-74.99 46 -75.98 46 -77 46 C-75.4717615 53.13177966 -72.99640681 59.41080765 -69.62768555 65.84912109 C-67.37257404 70.17037163 -65.53486379 74.51387863 -63.921875 79.109375 C-63.02831806 81.34567557 -63.02831806 81.34567557 -60 83 C-56.87478167 83.16699232 -56.87478167 83.16699232 -54 83 C-53.67 82.34 -53.34 81.68 -53 81 C-52.34 81 -51.68 81 -51 81 C-51.7416269 76.17942512 -53.6866335 72.61982004 -56.0390625 68.40234375 C-57.11210983 65.71972542 -57.01634763 64.65107545 -56 62 C-55.34 63.32 -54.68 64.64 -54 66 C-54.05220703 64.82824219 -54.05220703 64.82824219 -54.10546875 63.6328125 C-54.31233695 54.78673403 -53.62458509 46.16670804 -52.625 37.375 C-52.49891357 36.23691895 -52.37282715 35.09883789 -52.24291992 33.92626953 C-52.11377197 32.84458496 -51.98462402 31.76290039 -51.8515625 30.6484375 C-51.73635254 29.68083496 -51.62114258 28.71323242 -51.50244141 27.71630859 C-50.54900036 22.56179687 -48.84614529 19.46840614 -45.0625 15.875 C-44.37285156 15.21242187 -43.68320313 14.54984375 -42.97265625 13.8671875 C-41.99619141 12.94292969 -41.99619141 12.94292969 -41 12 C-40.47277344 11.42636719 -39.94554687 10.85273438 -39.40234375 10.26171875 C-38 9 -38 9 -35.5 8.9375 C-31.93011058 10.454703 -31.54030376 12.4956052 -30 16 C-29.24699637 18.25641434 -28.53814024 20.52806021 -27.875 22.8125 C-27.00429473 26.70844435 -27.00429473 26.70844435 -25 30 C-24.61328125 28.91460937 -24.2265625 27.82921875 -23.828125 26.7109375 C-23.3025015 25.26547287 -22.77643628 23.82016882 -22.25 22.375 C-21.87101562 21.30572266 -21.87101562 21.30572266 -21.484375 20.21484375 C-19.82037951 15.68045603 -17.78005363 11.98749217 -15 8 C-14.62875 6.6696875 -14.62875 6.6696875 -14.25 5.3125 C-12.50800188 2.08980347 -10.43411605 1.58569315 -7.03515625 0.5 C-4.57556123 -0.1042767 -2.51471201 -0.36981059 0 0 Z M-38 38 C-38 39.32 -38 40.64 -38 42 C-37.34 42 -36.68 42 -36 42 C-36.66 40.68 -37.32 39.36 -38 38 Z M-53 69 C-52.34 70.32 -51.68 71.64 -51 73 C-51.33 71.68 -51.66 70.36 -52 69 C-52.33 69 -52.66 69 -53 69 Z M-50 75 C-49 77 -49 77 -49 77 Z " fill="#B43737" transform="translate(183,171)"/>
<path d="M0 0 C1.60355101 3.50776784 2.22036864 6.14354879 2 10 C1.34 10 0.68 10 0 10 C-0.06574219 10.61488281 -0.13148438 11.22976562 -0.19921875 11.86328125 C-1 14 -1 14 -3.14453125 15.23046875 C-4.02496094 15.54628906 -4.90539062 15.86210937 -5.8125 16.1875 C-6.68519531 16.51105469 -7.55789063 16.83460938 -8.45703125 17.16796875 C-10.62778564 17.87821558 -12.77575186 18.48671197 -15 19 C-14.71125 20.04800781 -14.4225 21.09601563 -14.125 22.17578125 C-13.74980207 23.55463366 -13.37481295 24.93354289 -13 26.3125 C-12.80921875 27.00279297 -12.6184375 27.69308594 -12.421875 28.40429688 C-11.62283816 31.35787949 -11 33.92559219 -11 37 C-9.6696875 36.505 -9.6696875 36.505 -8.3125 36 C-5.2526574 35.07627393 -3.15026528 34.56246316 0 35 C2.19576787 38.2936518 2.36287182 39.18984584 2 43 C0.85336716 46.79270862 0.38946688 47.74035542 -3 50 C-5.6875 50.125 -5.6875 50.125 -8 50 C-7.54771375 52.39711711 -7.0883992 54.79252818 -6.625 57.1875 C-6.49867188 57.86103516 -6.37234375 58.53457031 -6.2421875 59.22851562 C-5.50094991 63.02735827 -4.47779436 66.43291016 -3 70 C-2.875 72.8125 -2.875 72.8125 -3 75 C-3.99 75.33 -4.98 75.66 -6 76 C-6.3403125 76.99 -6.3403125 76.99 -6.6875 78 C-8 80 -8 80 -11.6875 80.875 C-15.79427749 81.38526093 -19.20207478 80.61070757 -23 79 C-24.453125 76.015625 -24.453125 76.015625 -25.25 72.25 C-25.52328125 71.03828125 -25.7965625 69.8265625 -26.078125 68.578125 C-26.28695313 67.53374268 -26.28695313 67.53374268 -26.5 66.46826172 C-26.87610377 64.61161664 -27.27599947 62.75976657 -27.6875 60.91064453 C-29.78809541 51.44590821 -31.37123684 41.93716613 -32.80224609 32.35009766 C-33.09743969 30.38546782 -33.40788506 28.42314866 -33.71875 26.4609375 C-33.89341797 25.31415527 -34.06808594 24.16737305 -34.24804688 22.98583984 C-35.02001228 19.92053565 -36.06164935 18.42831515 -38 16 C-37.8125 13.3125 -37.8125 13.3125 -37 11 C-36.34 10.67 -35.68 10.34 -35 10 C-34.67 9.01 -34.34 8.02 -34 7 C-32.07421875 6.375 -32.07421875 6.375 -29.6875 6 C-26.94575534 5.5649463 -25.34204587 5.26619469 -23.1328125 3.546875 C-20.27397143 1.47342983 -17.63053234 0.98113146 -14.1875 0.25 C-13.00542969 -0.01296875 -11.82335937 -0.2759375 -10.60546875 -0.546875 C-6.81890649 -1.02275931 -3.73495486 -0.70777634 0 0 Z " fill="#AA2828" transform="translate(351,130)"/>
<path d="M0 0 C3.73483668 0.04569878 7.46579562 0.11652908 11.19921875 0.23046875 C12.24980469 0.24851563 13.30039063 0.2665625 14.3828125 0.28515625 C25.03777792 0.7466452 35.13271807 3.87496852 45.19921875 7.23046875 C46.00097656 9.39428711 46.00097656 9.39428711 46.19921875 12.23046875 C44.24902344 14.84594727 44.24902344 14.84594727 41.37109375 17.609375 C40.86628479 18.1033226 40.36147583 18.5972702 39.84136963 19.10618591 C38.22419906 20.68316875 36.58781999 22.23829352 34.94921875 23.79296875 C33.32933758 25.35528947 31.71367493 26.92182253 30.09991455 28.49046326 C28.62936033 29.91578511 27.14842314 31.33037118 25.66699219 32.74438477 C21.70602122 36.50101234 21.70602122 36.50101234 19.85864258 41.42871094 C19.87435303 42.20375977 19.89006348 42.97880859 19.90625 43.77734375 C19.91591797 44.62167969 19.92558594 45.46601563 19.93554688 46.3359375 C19.96068359 47.20863281 19.98582031 48.08132812 20.01171875 48.98046875 C20.02525391 49.86863281 20.03878906 50.75679687 20.05273438 51.671875 C20.08800566 53.85869453 20.13729123 56.04426841 20.19921875 58.23046875 C17.55921875 58.23046875 14.91921875 58.23046875 12.19921875 58.23046875 C11.86921875 59.55046875 11.53921875 60.87046875 11.19921875 62.23046875 C10.20921875 62.23046875 9.21921875 62.23046875 8.19921875 62.23046875 C6.91035027 54.93597507 5.62943517 47.64011679 4.35400391 40.34326172 C3.91930613 37.86182142 3.48279786 35.38069756 3.04443359 32.89990234 C2.41416235 29.3312237 1.79043998 25.76145261 1.16796875 22.19140625 C0.87267273 20.53170303 0.87267273 20.53170303 0.57141113 18.83847046 C0.30113098 17.27753159 0.30113098 17.27753159 0.02539062 15.68505859 C-0.21443542 14.31938248 -0.21443542 14.31938248 -0.45910645 12.92611694 C-0.82971335 10.00220853 -0.85795378 7.17468507 -0.80078125 4.23046875 C-2.12078125 3.57046875 -3.44078125 2.91046875 -4.80078125 2.23046875 C-2.80078125 0.23046875 -2.80078125 0.23046875 0 0 Z M13.19921875 10.23046875 C13.67907906 15.79937392 14.49837056 20.90114443 16.19921875 26.23046875 C16.83859375 25.57046875 17.47796875 24.91046875 18.13671875 24.23046875 C21.98214225 20.37393131 26.10846294 16.82213453 30.19921875 13.23046875 C29.86921875 12.57046875 29.53921875 11.91046875 29.19921875 11.23046875 C26.48474896 10.9180542 23.86012514 10.71710283 21.13671875 10.60546875 C19.99879883 10.54746094 19.99879883 10.54746094 18.83789062 10.48828125 C16.9587468 10.39373313 15.07901539 10.31100119 13.19921875 10.23046875 Z " fill="#AC3030" transform="translate(198.80078125,166.76953125)"/>
<path d="M0 0 C3.56988942 1.517203 3.95969624 3.5581052 5.5 7.0625 C6.25300363 9.31891434 6.96185976 11.59056021 7.625 13.875 C8.49570527 17.77094435 8.49570527 17.77094435 10.5 21.0625 C11.16 19.7425 11.82 18.4225 12.5 17.0625 C13.16 17.0625 13.82 17.0625 14.5 17.0625 C15.16 16.4025 15.82 15.7425 16.5 15.0625 C16.995 16.5475 16.995 16.5475 17.5 18.0625 C18.49 18.3925 19.48 18.7225 20.5 19.0625 C19.91715568 24.14437854 18.77012802 28.73334787 17.0625 33.5625 C15.39479961 38.36270586 13.85671006 43.16572324 12.5 48.0625 C9.63567592 47.75560813 8.56301879 47.12551879 6.5 45.0625 C3.4781513 40.52972695 0.5 35.60599003 0.5 30.0625 C-0.16 30.0625 -0.82 30.0625 -1.5 30.0625 C-2.16 29.0725 -2.82 28.0825 -3.5 27.0625 C-3.61028714 39.44350347 -3.57650471 51.72114238 -2.5 64.0625 C-3.16 64.0625 -3.82 64.0625 -4.5 64.0625 C-4.83 65.0525 -5.16 66.0425 -5.5 67.0625 C-6.46873032 68.41872245 -7.46434215 69.75667053 -8.5 71.0625 C-10.375 70.9375 -10.375 70.9375 -12.5 70.0625 C-18.72800399 54.73693387 -20.43551239 27.56845098 -14.5 12.0625 C-11.94838788 8.2256314 -9.23673591 5.70258515 -5.5 3.0625 C-4.96375 2.49917969 -4.4275 1.93585938 -3.875 1.35546875 C-2.5 0.0625 -2.5 0.0625 0 0 Z " fill="#B22D2D" transform="translate(147.5,179.9375)"/>
<path d="M0 0 C6.03169873 1.38226429 8.99170348 6.76979965 12.1953125 11.69140625 C15.04479148 16.42203477 17.69098086 21.26577667 20.30932617 26.12768555 C22.91227675 30.91626441 25.74554206 35.31341571 29 39.6875 C29.33 35.7275 29.66 31.7675 30 27.6875 C30.33 27.6875 30.66 27.6875 31 27.6875 C31 33.6275 31 39.5675 31 45.6875 C29.02 44.6975 27.04 43.7075 25 42.6875 C24.505 43.6775 24.505 43.6775 24 44.6875 C24.33 45.3475 24.66 46.0075 25 46.6875 C24.505 47.47125 24.01 48.255 23.5 49.0625 C21.79865638 51.48353798 21.79865638 51.48353798 22.125 53.75 C22.92272255 55.79060072 22.92272255 55.79060072 24.625 57.4375 C26.98027734 61.2915902 25.4468972 65.80974771 24.44335938 70.02636719 C23.80416737 72.42284552 23.12987973 74.80586889 22.4375 77.1875 C22.20353516 78.00992188 21.96957031 78.83234375 21.72851562 79.6796875 C21.15757928 81.68379058 20.57953295 83.68586591 20 85.6875 C18.52005208 80.70343903 20.08199603 76.80490269 21.40625 71.87890625 C22.54665531 65.74922771 20.27587653 62.07767726 17.0625 57 C13.47416678 51.18246221 10.05164563 45.29755482 6.75 39.3125 C6.35047119 38.58844971 5.95094238 37.86439941 5.53930664 37.1184082 C4.75722572 35.69875252 3.97620685 34.27851121 3.19628906 32.85766602 C1.92226511 30.54648256 0.63281766 28.24422745 -0.65625 25.94140625 C-8.12895633 12.49053486 -8.12895633 12.49053486 -8 6.6875 C-5.70291401 2.92863201 -4.36484817 1.00027771 0 0 Z " fill="#B23E3E" transform="translate(362,124.3125)"/>
<path d="M0 0 C1.32 0 2.64 0 4 0 C5.46719739 7.63775097 6.89949315 15.2741825 8.1315918 22.95385742 C9.21214688 29.68852979 10.48668179 36.24513195 12.23828125 42.84375 C13.21512122 46.89137408 13.96413119 50.96297951 14.6875 55.0625 C14.88472656 56.17153687 14.88472656 56.17153687 15.0859375 57.30297852 C15.59266535 60.24220434 16 63.01148511 16 66 C14.515 65.505 14.515 65.505 13 65 C12.67 65.99 12.34 66.98 12 68 C7.05 68.495 7.05 68.495 2 69 C-0.50679664 64.53735103 -1.59248562 60.51405856 -2.25 55.5 C-3.7540748 45.25522225 -6.20620374 35.24365675 -8.66308594 25.1953125 C-8.96375977 23.94878906 -9.26443359 22.70226562 -9.57421875 21.41796875 C-9.84838623 20.30188232 -10.12255371 19.1857959 -10.4050293 18.03588867 C-10.94945296 15.25792056 -11.11969032 12.81911696 -11 10 C-10.01 9.67 -9.02 9.34 -8 9 C-7.87625 8.360625 -7.7525 7.72125 -7.625 7.0625 C-7.41875 6.381875 -7.2125 5.70125 -7 5 C-5.35448038 4.28272222 -3.68577711 3.61674772 -2 3 C-1.34 2.01 -0.68 1.02 0 0 Z " fill="#A92828" transform="translate(300,142)"/>
<path d="M0 0 C1.65 0 3.3 0 5 0 C5 1.32 5 2.64 5 4 C4.34 4 3.68 4 3 4 C5.60262519 24.32250719 5.60262519 24.32250719 10.05078125 44.29296875 C11.79614264 51.1092155 12.86624017 58.06001559 14 65 C12.68 65.33 11.36 65.66 10 66 C10.33 66.99 10.66 67.98 11 69 C6.18615099 72.81788025 0.89352231 72.70067925 -5 73 C-5.33 71.35 -5.66 69.7 -6 68 C-6.99 68 -7.98 68 -9 68 C-9.0825 68.61875 -9.165 69.2375 -9.25 69.875 C-10 72 -10 72 -11.6953125 73.08203125 C-14.37298661 74.14856246 -16.76154143 74.47584014 -19.625 74.8125 C-26.19956607 75.72832291 -32.39569786 77.3940445 -38.73095703 79.32348633 C-42.95349938 80.57545937 -46.54046575 81.26856149 -51 81 C-54.82637416 70.48176073 -59.14962881 55.20365527 -58 44 C-57.01 42.68 -56.02 41.36 -55 40 C-53.02 51.55 -51.04 63.1 -49 75 C-48.34 74.01 -47.68 73.02 -47 72 C-47 72.66 -47 73.32 -47 74 C-43.64782994 75.11739002 -43.24620423 74.9442025 -40.12890625 73.73046875 C-34.18999991 71.61604961 -28.11826312 70.49301506 -21.9375 69.3125 C-20.20983398 68.97508789 -20.20983398 68.97508789 -18.44726562 68.63085938 C-15.63249687 68.08192107 -12.81679351 67.53843415 -10 67 C-8.94148459 63.82445377 -9.039908 62.59467459 -9.56640625 59.37109375 C-9.71972412 58.43056152 -9.87304199 57.4900293 -10.03100586 56.52099609 C-10.20639893 55.50344238 -10.38179199 54.48588867 -10.5625 53.4375 C-10.73724854 52.38643066 -10.91199707 51.33536133 -11.09204102 50.25244141 C-12.1043211 44.39305491 -13.2922148 38.61472224 -14.7109375 32.83984375 C-14.99638428 31.67590088 -15.28183105 30.51195801 -15.57592773 29.31274414 C-16.14162021 27.05558469 -16.72650174 24.80313079 -17.33227539 22.55639648 C-19.27890954 14.84035082 -19.27890954 14.84035082 -17.796875 10.375 C-16.04422098 8.05844861 -14.46153631 6.52785013 -12 5 C-11.505 6.98 -11.505 6.98 -11 9 C-12.32 9 -13.64 9 -15 9 C-14.73783691 10.10811035 -14.47567383 11.2162207 -14.20556641 12.35791016 C-13.21906155 16.53501566 -12.24072958 20.7140023 -11.26464844 24.89355469 C-10.84396657 26.68996261 -10.4211745 28.48587789 -9.99609375 30.28125 C-7.72457121 39.88164713 -5.59017061 49.35208314 -4.47021484 59.16552734 C-3.99734993 62.01597475 -3.17481809 64.36891591 -2 67 C-0.906875 66.814375 0.18625 66.62875 1.3125 66.4375 C5 66 5 66 8 67 C8.495 65.02 8.495 65.02 9 63 C10.485 63.99 10.485 63.99 12 65 C11.23419174 61.082334 10.46140149 57.1660746 9.6875 53.25 C9.47416016 52.15816406 9.26082031 51.06632812 9.04101562 49.94140625 C7.98511641 44.61463112 6.85529174 39.34477725 5.46875 34.09375 C3.71054188 27.21967222 2.7548238 20.27526229 1.8125 13.25 C1.63525391 11.96867188 1.45800781 10.68734375 1.27539062 9.3671875 C0.8444174 6.2455436 0.41939785 3.12321638 0 0 Z " fill="#CCC5C4" transform="translate(304,143)"/>
<path d="M0 0 C1.16537667 3.49613001 0.83687903 4.04959476 -0.546875 7.31640625 C-0.8975 8.16396484 -1.248125 9.01152344 -1.609375 9.88476562 C-2.17398438 11.21024414 -2.17398438 11.21024414 -2.75 12.5625 C-6.5178935 21.50451867 -9.94533454 30.29707775 -11 40 C-11.66 40 -12.32 40 -13 40 C-13.33 41.32 -13.66 42.64 -14 44 C-16.25 44.3125 -16.25 44.3125 -19 44 C-22.31130661 40.99912839 -23.82751868 37.312594 -25.625 33.30078125 C-26.29402344 31.81251831 -26.29402344 31.81251831 -26.9765625 30.29418945 C-27.31429687 29.53710693 -27.65203125 28.78002441 -28 28 C-27.94875977 28.80630859 -27.89751953 29.61261719 -27.84472656 30.44335938 C-27.62356706 34.12794015 -27.43651884 37.81350992 -27.25 41.5 C-27.16878906 42.7684375 -27.08757812 44.036875 -27.00390625 45.34375 C-26.65339192 52.82138905 -26.87389998 57.66691625 -31 64 C-31.66 64 -32.32 64 -33 64 C-33.495 65.485 -33.495 65.485 -34 67 C-38.75 68.125 -38.75 68.125 -41 67 C-41 67.66 -41 68.32 -41 69 C-47.07507508 71.97797798 -47.07507508 71.97797798 -50.625 72.0625 C-56.90004135 69.25524466 -59.53906352 62.27698623 -62.0625 56.3125 C-62.40466553 55.51956543 -62.74683105 54.72663086 -63.09936523 53.90966797 C-70.57478434 36.43202778 -70.57478434 36.43202778 -69 32 C-68.67 31.34 -68.34 30.68 -68 30 C-69.32 30.99 -70.64 31.98 -72 33 C-72.66 32.67 -73.32 32.34 -74 32 C-72.37982158 30.66081194 -70.75370657 29.3288031 -69.125 28 C-68.22007813 27.2575 -67.31515625 26.515 -66.3828125 25.75 C-64 24 -64 24 -62 24 C-62 23.34 -62 22.68 -62 22 C-61.34 22.33 -60.68 22.66 -60 23 C-61.8125 25.5 -61.8125 25.5 -64 28 C-64.99 28 -65.98 28 -67 28 C-65.4717615 35.13177966 -62.99640681 41.41080765 -59.62768555 47.84912109 C-57.37257404 52.17037163 -55.53486379 56.51387863 -53.921875 61.109375 C-53.02831806 63.34567557 -53.02831806 63.34567557 -50 65 C-46.87478167 65.16699232 -46.87478167 65.16699232 -44 65 C-43.67 64.34 -43.34 63.68 -43 63 C-42.34 63 -41.68 63 -41 63 C-41.7416269 58.17942512 -43.6866335 54.61982004 -46.0390625 50.40234375 C-47.11210983 47.71972542 -47.01634763 46.65107545 -46 44 C-45.34 45.32 -44.68 46.64 -44 48 C-44.01160156 47.01 -44.02320313 46.02 -44.03515625 45 C-44.0897219 38.26199467 -44.08898024 31.67000397 -43 25 C-42.67 25 -42.34 25 -42 25 C-41.87939209 26.31605225 -41.87939209 26.31605225 -41.75634766 27.65869141 C-41.45261364 30.93563911 -41.14249413 34.21185504 -40.828125 37.48779297 C-40.69375199 38.90161664 -40.56187591 40.31568006 -40.43261719 41.72998047 C-40.2456132 43.77120097 -40.04943399 45.81137021 -39.8515625 47.8515625 C-39.67874756 49.68968506 -39.67874756 49.68968506 -39.50244141 51.56494141 C-39.01298076 54.91125402 -38.17346079 57.83546856 -37 61 C-36.01 61 -35.02 61 -34 61 C-33.7525 60.38125 -33.505 59.7625 -33.25 59.125 C-31.79371361 56.64931313 -30.62187494 56.04874998 -28 55 C-28.33 54.34 -28.66 53.68 -29 53 C-30.13952197 44.84045996 -30.12807595 36.53572026 -30.1875 28.3125 C-30.20047119 27.3318457 -30.21344238 26.35119141 -30.22680664 25.34082031 C-30.22801514 24.42010742 -30.22922363 23.49939453 -30.23046875 22.55078125 C-30.23457764 21.72231689 -30.23868652 20.89385254 -30.24291992 20.0402832 C-30 18 -30 18 -28 16 C-27.01879536 19.05263664 -27.01879536 20.94736336 -28 24 C-27.34 24 -26.68 24 -26 24 C-26.495 22.515 -26.495 22.515 -27 21 C-26.34 21 -25.68 21 -25 21 C-24.60167969 21.97582031 -24.20335937 22.95164063 -23.79296875 23.95703125 C-23.25820136 25.24234936 -22.72302352 26.52749675 -22.1875 27.8125 C-21.92646484 28.45509766 -21.66542969 29.09769531 -21.39648438 29.75976562 C-19.48505667 34.4660175 -19.48505667 34.4660175 -16 38 C-15.01 38 -14.02 38 -13 38 C-12.57654297 36.25783203 -12.57654297 36.25783203 -12.14453125 34.48046875 C-11.11895578 30.38446979 -9.95038313 26.34133888 -8.6875 22.3125 C-8.47383789 21.62986084 -8.26017578 20.94722168 -8.04003906 20.24389648 C-2.34836769 2.34836769 -2.34836769 2.34836769 0 0 Z M-43 51 C-42.34 52.32 -41.68 53.64 -41 55 C-41.33 53.68 -41.66 52.36 -42 51 C-42.33 51 -42.66 51 -43 51 Z M-40 57 C-39 59 -39 59 -39 59 Z " fill="#E7E1E0" transform="translate(173,189)"/>
<path d="M0 0 C3.6218998 0.94755382 4.82882858 1.74478649 6.94921875 4.90625 C9.92896476 11.06662377 12.42595198 16.65436038 13.3984375 23.484375 C14.42843666 27.79164423 16.69418118 31.49927244 18.85546875 35.3359375 C20 38 20 38 19.67578125 40.3515625 C19.34126953 41.16753906 19.34126953 41.16753906 19 42 C17.61593572 42.47341632 16.21665083 42.90247879 14.8125 43.3125 C14.03519531 43.55613281 13.25789063 43.79976562 12.45703125 44.05078125 C10 44 10 44 7.48828125 42.19140625 C4.01143187 38.29221815 2.30294694 33.41162688 0.375 28.625 C-0.0065625 27.70460937 -0.388125 26.78421875 -0.78125 25.8359375 C-1.52338444 24.04457851 -2.26024186 22.2510221 -2.99121094 20.45507812 C-3.8799588 18.29214285 -4.80179847 16.14862662 -5.7421875 14.0078125 C-7.01017372 10.97567154 -7.71530962 9.21889327 -7 6 C-4.625 4.375 -4.625 4.375 -2 3 C-1.34 2.01 -0.68 1.02 0 0 Z " fill="#B53131" transform="translate(113,211)"/>
<path d="M0 0 C0.66 0.66 1.32 1.32 2 2 C1.67 2.99 1.34 3.98 1 5 C0.34 4.67 -0.32 4.34 -1 4 C-0.86980469 5.25554687 -0.73960937 6.51109375 -0.60546875 7.8046875 C0.99054269 25.7115064 0.99054269 25.7115064 -5 33 C-7.76745209 36.04916877 -10.66412338 38.9389011 -13.671875 41.75 C-16.0266576 43.77634144 -16.0266576 43.77634144 -17 46 C-17.66 46 -18.32 46 -19 46 C-19.226875 46.721875 -19.45375 47.44375 -19.6875 48.1875 C-21 51 -21 51 -23.625 52.9375 C-27.07052545 57.3804144 -26.124498 61.19973261 -25.9296875 66.66015625 C-25.99401959 69.7159303 -26.12566212 71.31088033 -27.6875 73.875 C-30.51949314 76.47737208 -31.33155025 76 -35 76 C-37.35322796 78.90412546 -37.35322796 78.90412546 -39 82 C-40.485 81.505 -40.485 81.505 -42 81 C-45.02422641 72.9773994 -45.73610861 63.70477673 -46.91015625 55.24487305 C-47.58036221 50.47203557 -48.44957912 45.81182935 -49.53393555 41.11621094 C-50.21713356 38.01408398 -50.68085805 34.89424298 -51.125 31.75 C-51.29257813 30.58984375 -51.46015625 29.4296875 -51.6328125 28.234375 C-51.94967076 25.44332565 -52.06958084 22.80311366 -52 20 C-52 19.34 -52 18.68 -52 18 C-53.98 17.01 -55.96 16.02 -58 15 C-58 14.01 -58 13.02 -58 12 C-51.96496237 10.49124059 -46.10261631 11.35813906 -40 12 C-40 12.33 -40 12.66 -40 13 C-45.445 13.495 -45.445 13.495 -51 14 C-51 14.66 -51 15.32 -51 16 C-50.34 16.33 -49.68 16.66 -49 17 C-48.41781616 19.09869385 -48.41781616 19.09869385 -47.94677734 21.89941406 C-47.76674164 22.94429993 -47.58670593 23.98918579 -47.4012146 25.06573486 C-47.21467316 26.20419861 -47.02813171 27.34266235 -46.8359375 28.515625 C-46.63900299 29.67874207 -46.44206848 30.84185913 -46.23916626 32.04022217 C-45.82321814 34.5077194 -45.41159285 36.97594855 -45.00390625 39.44482422 C-44.37971639 43.22146363 -43.74181625 46.99558559 -43.1015625 50.76953125 C-42.69970537 53.16392578 -42.29863792 55.55845301 -41.8984375 57.953125 C-41.7078476 59.08349182 -41.51725769 60.21385864 -41.32089233 61.378479 C-41.14716095 62.43597351 -40.97342957 63.49346802 -40.79443359 64.58300781 C-40.64058197 65.51042786 -40.48673035 66.4378479 -40.32821655 67.39337158 C-40.00504717 69.9599164 -39.94064841 72.41632708 -40 75 C-39.01 75 -38.02 75 -37 75 C-37 73.02 -37 71.04 -37 69 C-36.505 69.99 -36.505 69.99 -36 71 C-35.4225 70.814375 -34.845 70.62875 -34.25 70.4375 C-31.77511403 69.95627217 -30.39014524 70.32212267 -28 71 C-28.19980469 69.76765625 -28.39960938 68.5353125 -28.60546875 67.265625 C-30.27955601 54.34899546 -30.27955601 54.34899546 -27.14453125 48.59375 C-24.79328995 46.06538417 -22.42815181 43.77300108 -19.80175781 41.54248047 C-17.08017626 39.21254114 -14.48552565 36.76027607 -11.90820312 34.27246094 C-10.58324543 32.99523226 -9.23618641 31.7404235 -7.86523438 30.51269531 C-3.69068125 26.55797007 -2.21492876 23.74150473 -1.94042969 17.96191406 C-2.01424182 15.53095367 -2.39590158 13.35598382 -3 11 C-3.3753394 8.33759255 -3.68319117 5.67024583 -4 3 C-2.68 2.67 -1.36 2.34 0 2 C0 1.34 0 0.68 0 0 Z " fill="#D4CFCF" transform="translate(247,154)"/>
<path d="M0 0 C0.66 0.99 1.32 1.98 2 3 C2.99 3.33 3.98 3.66 5 4 C5.15557373 5.04639648 5.31114746 6.09279297 5.47143555 7.17089844 C8.8619452 30.83097229 8.8619452 30.83097229 13.5625 54.25 C13.73547607 55.03858398 13.90845215 55.82716797 14.08666992 56.63964844 C14.9165143 59.8932661 15.42886252 61.63654887 18.3203125 63.4765625 C21.06851258 64.01338292 23.5148164 64.1996049 26.3125 64.125 C27.19550781 64.10695313 28.07851563 64.08890625 28.98828125 64.0703125 C29.65214844 64.04710937 30.31601562 64.02390625 31 64 C30.65066406 63.19175781 30.30132812 62.38351563 29.94140625 61.55078125 C29.25884766 59.94783203 29.25884766 59.94783203 28.5625 58.3125 C27.88380859 56.72888672 27.88380859 56.72888672 27.19140625 55.11328125 C24.83523984 48.95634804 24.91295405 43.52844618 25 37 C29.95 34.525 29.95 34.525 35 32 C34.34 29.69 33.68 27.38 33 25 C33.99 25.33 34.98 25.66 36 26 C36.91377136 30.66023391 37.40616073 33.78921872 35 38 C31.77208445 40.1519437 30.71599191 40.20086443 27 40 C27.45228625 42.39711711 27.9116008 44.79252818 28.375 47.1875 C28.50132812 47.86103516 28.62765625 48.53457031 28.7578125 49.22851562 C29.49905009 53.02735827 30.52220564 56.43291016 32 60 C32.125 62.8125 32.125 62.8125 32 65 C31.01 65.33 30.02 65.66 29 66 C28.6596875 66.99 28.6596875 66.99 28.3125 68 C27 70 27 70 23.3125 70.875 C19.20572251 71.38526093 15.79792522 70.61070757 12 69 C10.546875 66.015625 10.546875 66.015625 9.75 62.25 C9.34007812 60.43242187 9.34007812 60.43242187 8.921875 58.578125 C8.71304687 57.53374268 8.71304687 57.53374268 8.5 56.46826172 C8.12389623 54.61161664 7.72400053 52.75976657 7.3125 50.91064453 C5.21190459 41.44590821 3.62876316 31.93716613 2.19775391 22.35009766 C1.90256031 20.38546782 1.59211494 18.42314866 1.28125 16.4609375 C1.10658203 15.31415527 0.93191406 14.16737305 0.75195312 12.98583984 C-0.02001228 9.92053565 -1.06164935 8.42831515 -3 6 C-2.8125 3.3125 -2.8125 3.3125 -2 1 C-1.34 0.67 -0.68 0.34 0 0 Z " fill="#CEC9C9" transform="translate(316,140)"/>
<path d="M0 0 C0.33 0 0.66 0 1 0 C1.05454409 2.35448675 1.0939279 4.70767875 1.125 7.0625 C1.14820313 8.37347656 1.17140625 9.68445313 1.1953125 11.03515625 C0.99781575 15.04434021 0.15466425 18.17050202 -1 22 C-1.59769372 25.17370426 -2.04942898 28.36497833 -2.5 31.5625 C-2.69118408 32.88314453 -2.69118408 32.88314453 -2.88623047 34.23046875 C-3.14190591 35.99988468 -3.39568729 37.76957545 -3.64746094 39.53955078 C-3.9560565 41.69330847 -4.27521562 43.84496999 -4.6015625 45.99609375 C-5.40840366 51.39711255 -6.08159681 56.73729621 -6.4375 62.1875 C-6.79507582 67.00200295 -7.74042031 71.33987417 -9.18359375 75.94140625 C-10.16003859 79.59957041 -10.80743397 83.27387494 -11.46655273 87.00073242 C-16.04509946 112.74327089 -16.04509946 112.74327089 -20.671875 123.578125 C-23.15902443 129.98619235 -24.8338438 136.65876047 -26.66796875 143.27734375 C-27.67125036 146.89216096 -28.76778896 150.4552033 -30 154 C-30.66 154 -31.32 154 -32 154 C-32.103125 154.70125 -32.20625 155.4025 -32.3125 156.125 C-33.11186796 159.46781148 -34.2013433 162.06885575 -36 165 C-39.0598508 166.14996591 -42.00918043 166.10514236 -45.25 166.0625 C-46.14203125 166.05347656 -47.0340625 166.04445313 -47.953125 166.03515625 C-48.96632813 166.01775391 -48.96632813 166.01775391 -50 166 C-50.66268329 158.87615459 -48.25388064 152.69120815 -46 146 C-45.34 146.99 -44.68 147.98 -44 149 C-44.66 149 -45.32 149 -46 149 C-45.4740625 150.11375 -45.4740625 150.11375 -44.9375 151.25 C-43.95490707 154.1322726 -43.9673198 155.21176345 -45 158 C-43.68 158 -42.36 158 -41 158 C-40.01 157.01 -40.01 157.01 -39 156 C-39 156.99 -39 157.98 -39 159 C-37.68 159.33 -36.36 159.66 -35 160 C-34.87367188 159.26982666 -34.74734375 158.53965332 -34.6171875 157.78735352 C-34.02784891 155.12577175 -33.20681132 152.89695662 -32.125 150.40234375 C-29.86848259 144.9025917 -28.4041752 139.32964814 -27 133.5625 C-25.61372085 127.89170426 -24.1983272 122.36689817 -22.06640625 116.92578125 C-19.11504722 109.06320923 -17.63603067 100.82762048 -15.9375 92.625 C-15.42797896 90.20083421 -14.91619744 87.77715476 -14.40396118 85.3535614 C-14.07131113 83.77724297 -13.740219 82.20059492 -13.41073608 80.62361145 C-12.44931415 76.03905034 -11.41231345 71.48054169 -10.31640625 66.92578125 C-9.1181885 61.80337007 -8.41407863 56.80011188 -8 51.5625 C-7.36787105 44.72747812 -6.33295659 38.16418172 -4.79296875 31.46484375 C-2.41126004 21.05806725 -0.58648926 10.67814923 0 0 Z " fill="#FCF5F5" transform="translate(412,116)"/>
<path d="M0 0 C0.1227832 0.57387451 0.24556641 1.14774902 0.37207031 1.73901367 C1.02587033 4.09315129 1.91487453 6.01279936 3.046875 8.17578125 C3.68653198 9.40131714 3.68653198 9.40131714 4.33911133 10.65161133 C4.80470459 11.52970459 5.27029785 12.40779785 5.75 13.3125 C6.47449341 14.68474731 6.47449341 14.68474731 7.21362305 16.0847168 C10.9977511 23.2062565 14.87307706 30.27577714 18.8125 37.3125 C19.60188965 38.73332886 19.60188965 38.73332886 20.40722656 40.18286133 C22.83890293 44.48656075 25.25741471 48.38730493 28.44921875 52.16796875 C30.80082573 55.22027594 30.99822867 55.80318581 31.03515625 59.90625 C30.73156406 61.28065183 30.3836387 62.64575853 30 64 C29.81034668 64.76441406 29.62069336 65.52882813 29.42529297 66.31640625 C28.80682899 68.72562461 28.13183907 71.11162919 27.4375 73.5 C27.20353516 74.32242188 26.96957031 75.14484375 26.72851562 75.9921875 C26.15757928 77.99629058 25.57953295 79.99836591 25 82 C23.52005208 77.01593903 25.08199603 73.11740269 26.40625 68.19140625 C27.54665531 62.06172771 25.27587653 58.39017726 22.0625 53.3125 C18.47416678 47.49496221 15.05164563 41.61005482 11.75 35.625 C11.35047119 34.90094971 10.95094238 34.17689941 10.53930664 33.4309082 C9.75722572 32.01125252 8.97620685 30.59101121 8.19628906 29.17016602 C6.92226511 26.85898256 5.63281766 24.55672745 4.34375 22.25390625 C-2.84987174 9.30538713 -2.84987174 9.30538713 -3 3 C-1.5625 1.125 -1.5625 1.125 0 0 Z " fill="#D4CECE" transform="translate(357,128)"/>
<path d="M0 0 C2.12605632 3.58821401 2.65146657 7.07783799 3.2890625 11.171875 C3.45128799 12.1955014 3.45128799 12.1955014 3.61679077 13.23980713 C3.95909851 15.40894678 4.29216963 17.57938805 4.625 19.75 C4.85616177 21.22535598 5.08792596 22.7006177 5.3203125 24.17578125 C5.88719005 27.78278871 6.44579561 31.39102104 7 35 C7.66 34.01 8.32 33.02 9 32 C9 32.66 9 33.32 9 34 C12.35608891 35.1186963 12.76128697 34.94017616 15.8828125 33.72265625 C22.82978758 31.24802499 30.05556055 30.14326599 37.2890625 28.80664062 C38.36671875 28.60103516 39.444375 28.39542969 40.5546875 28.18359375 C41.52905762 28.00368896 42.50342773 27.82378418 43.50732422 27.63842773 C46.22530538 27.08878914 46.22530538 27.08878914 49 25 C49.495 26.485 49.495 26.485 50 28 C49.01 28 48.02 28 47 28 C46.9175 28.61875 46.835 29.2375 46.75 29.875 C46 32 46 32 44.3046875 33.08203125 C41.62701339 34.14856246 39.23845857 34.47584014 36.375 34.8125 C29.80043393 35.72832291 23.60430214 37.3940445 17.26904297 39.32348633 C13.04650062 40.57545937 9.45953425 41.26856149 5 41 C1.48893312 31.34850227 -5.23275484 11.43279066 -1.0078125 1.71875 C-0.67523438 1.1515625 -0.34265625 0.584375 0 0 Z " fill="#E8E6E5" transform="translate(248,183)"/>
<path d="M0 0 C1.08623213 3.30480778 0.88855949 5.48374178 0.07421875 8.84375 C-0.14556641 9.76027344 -0.36535156 10.67679688 -0.59179688 11.62109375 C-0.82962891 12.57113281 -1.06746094 13.52117187 -1.3125 14.5 C-1.53873047 15.45003906 -1.76496094 16.40007812 -1.99804688 17.37890625 C-4.07708632 25.89877394 -4.07708632 25.89877394 -6 29 C-9.19201574 30.35830457 -11.52710626 31 -15 31 C-15.65778261 22.61327176 -13.48637574 13.19756684 -9 6 C-7.34375 4.8046875 -7.34375 4.8046875 -5.5 3.875 C-2.05240547 2.2453318 -2.05240547 2.2453318 0 0 Z " fill="#B73738" transform="translate(91,229)"/>
<path d="M0 0 C2.14927791 3.60390284 2.62241652 7.09183739 3.21875 11.21484375 C3.32215698 11.90759903 3.42556396 12.60035431 3.53210449 13.31410217 C3.86122235 15.52100268 4.18157986 17.72903232 4.5 19.9375 C4.92000556 22.8435445 5.34834823 25.74819598 5.78125 28.65234375 C6.0606543 30.58581665 6.0606543 30.58581665 6.34570312 32.55834961 C6.92783169 35.62038932 7.7194674 38.17125475 9 41 C9.99 40.34 10.98 39.68 12 39 C12.66 39.33 13.32 39.66 14 40 C14.66 38.68 15.32 37.36 16 36 C16.33 36.99 16.66 37.98 17 39 C17.66 39 18.32 39 19 39 C18.67 34.38 18.34 29.76 18 25 C21.12019932 28.12019932 21.65837548 31.67275608 22 36 C21.56025318 39.3420758 20.75939509 42.11310525 19 45 C14.80202955 47.38521048 10.75530715 47.19021229 6 47 C3.09933271 41.1501863 2.18709681 35.70312242 1.4375 29.25 C1.19200811 27.28752131 0.94463412 25.32527707 0.6953125 23.36328125 C0.57833008 22.43338379 0.46134766 21.50348633 0.34082031 20.54541016 C-0.17338123 16.70510554 -0.88130436 12.91371151 -1.66796875 9.12109375 C-2.04363551 6.72124607 -2.05540873 4.42519737 -2 2 C-1.34 2 -0.68 2 0 2 C0 1.34 0 0.68 0 0 Z " fill="#D1C9C9" transform="translate(174,195)"/>
<path d="M0 0 C0.66 0.33 1.32 0.66 2 1 C0.1875 3.5 0.1875 3.5 -2 6 C-2.99 6 -3.98 6 -5 6 C-3.4717615 13.13177966 -0.99640681 19.41080765 2.37231445 25.84912109 C4.62742596 30.17037163 6.46513621 34.51387863 8.078125 39.109375 C8.97168194 41.34567557 8.97168194 41.34567557 12 43 C15.12521833 43.16699232 15.12521833 43.16699232 18 43 C18.33 42.34 18.66 41.68 19 41 C19.33 42.65 19.66 44.3 20 46 C18.67288808 46.35729936 17.33737094 46.68325425 16 47 C15.030625 47.2475 14.06125 47.495 13.0625 47.75 C9.08832588 48.07442238 8.09716532 47.51877902 5 45 C3.16144336 41.96731357 1.80717242 38.76627917 0.4375 35.5 C0.04836426 34.59958984 -0.34077148 33.69917969 -0.74169922 32.77148438 C-1.84816255 30.18896078 -2.92939706 27.59756283 -4 25 C-4.49628906 23.80375 -4.99257812 22.6075 -5.50390625 21.375 C-8.39396445 13.96356156 -8.39396445 13.96356156 -7 10 C-6.67 9.34 -6.34 8.68 -6 8 C-7.32 8.99 -8.64 9.98 -10 11 C-10.66 10.67 -11.32 10.34 -12 10 C-10.37982158 8.66081194 -8.75370657 7.3288031 -7.125 6 C-6.22007813 5.2575 -5.31515625 4.515 -4.3828125 3.75 C-2 2 -2 2 0 2 C0 1.34 0 0.68 0 0 Z " fill="#D6D3D3" transform="translate(111,211)"/>
<path d="M0 0 C0.66 0.66 1.32 1.32 2 2 C1.67 2.99 1.34 3.98 1 5 C0.34 4.67 -0.32 4.34 -1 4 C-0.86980469 5.25554687 -0.73960937 6.51109375 -0.60546875 7.8046875 C0.99054269 25.7115064 0.99054269 25.7115064 -5 33 C-7.76745209 36.04916877 -10.66412338 38.9389011 -13.671875 41.75 C-16.0266576 43.77634144 -16.0266576 43.77634144 -17 46 C-17.66 46 -18.32 46 -19 46 C-19.226875 46.721875 -19.45375 47.44375 -19.6875 48.1875 C-21 51 -21 51 -23.5625 53.4375 C-26.35042456 56.36839505 -26.72342421 58.03574701 -27 62 C-27.33 62 -27.66 62 -28 62 C-29.19532859 58.51426761 -29.5542311 55.65792523 -29 52 C-25.48065596 46.67282449 -20.65947447 42.48514716 -16.01855469 38.1484375 C-14.64160635 36.85709914 -13.27150309 35.55842468 -11.90820312 34.25268555 C-10.58039476 32.98562346 -9.23321966 31.73846834 -7.86523438 30.51489258 C-3.69268091 26.55716688 -2.21499436 23.74288587 -1.94042969 17.96191406 C-2.01424182 15.53095367 -2.39590158 13.35598382 -3 11 C-3.3753394 8.33759255 -3.68319117 5.67024583 -4 3 C-2.68 2.67 -1.36 2.34 0 2 C0 1.34 0 0.68 0 0 Z " fill="#FBFBFB" transform="translate(247,154)"/>
<path d="M0 0 C0.66 0.33 1.32 0.66 2 1 C1.45484328 8.08703739 -0.60918605 14.32796106 -3 21 C-3.66 21 -4.32 21 -5 21 C-5.103125 21.70125 -5.20625 22.4025 -5.3125 23.125 C-6.11186796 26.46781148 -7.2013433 29.06885575 -9 32 C-12.0598508 33.14996591 -15.00918043 33.10514236 -18.25 33.0625 C-19.14203125 33.05347656 -20.0340625 33.04445313 -20.953125 33.03515625 C-21.62859375 33.02355469 -22.3040625 33.01195312 -23 33 C-23.66268329 25.87615459 -21.25388064 19.69120815 -19 13 C-18.01 14.485 -18.01 14.485 -17 16 C-17.66 16 -18.32 16 -19 16 C-18.649375 16.7425 -18.29875 17.485 -17.9375 18.25 C-16.95490707 21.1322726 -16.9673198 22.21176345 -18 25 C-16.68 25 -15.36 25 -14 25 C-13.34 24.34 -12.68 23.68 -12 23 C-12 23.99 -12 24.98 -12 26 C-10.68 26.33 -9.36 26.66 -8 27 C-7.87367188 26.26910156 -7.74734375 25.53820312 -7.6171875 24.78515625 C-7.02910407 22.13133671 -6.20954585 19.92186665 -5.125 17.4375 C-2.78247548 11.76927461 -1.35411482 5.97041533 0 0 Z " fill="#FAF4F4" transform="translate(385,249)"/>
<path d="M0 0 C0.66 1.32 1.32 2.64 2 4 C0.68 4 -0.64 4 -2 4 C-1.78794922 4.87213135 -1.57589844 5.7442627 -1.35742188 6.64282227 C-0.56834498 9.90470139 0.21353347 13.16813804 0.99072266 16.43286133 C1.32740668 17.84076867 1.66687821 19.24801264 2.00927734 20.65454102 C2.50326661 22.68594584 2.9869091 24.7195901 3.46875 26.75390625 C3.76201172 27.97408447 4.05527344 29.1942627 4.35742188 30.45141602 C5.0085874 34.0474232 5.11451009 37.35408039 5 41 C4.34 41 3.68 41 3 41 C3 42.65 3 44.3 3 46 C2.67 46 2.34 46 2 46 C1.84144531 45.17242187 1.68289063 44.34484375 1.51953125 43.4921875 C1.16955078 41.70167969 1.16955078 41.70167969 0.8125 39.875 C0.62373291 38.89672241 0.62373291 38.89672241 0.43115234 37.89868164 C-0.40463825 33.67156612 -1.36046518 29.4938607 -2.41796875 25.31640625 C-2.65813721 24.34396973 -2.89830566 23.3715332 -3.14575195 22.36962891 C-3.62587149 20.43918511 -4.12271017 18.51281054 -4.63745117 16.59130859 C-5.71790692 12.18646486 -6.29447152 9.82506726 -4.73828125 5.46484375 C-3.27816891 3.39443727 -1.91977279 1.64551953 0 0 Z " fill="#D3CDCD" transform="translate(291,148)"/>
<path d="M0 0 C0.66 0.99 1.32 1.98 2 3 C2.99 3.33 3.98 3.66 5 4 C5.50831867 6.83206118 6.00681505 9.66529734 6.5 12.5 C6.64308594 13.29148438 6.78617187 14.08296875 6.93359375 14.8984375 C7.81233011 20.00347731 8.4949923 24.82508052 8 30 C5.97851562 31.72460938 5.97851562 31.72460938 4 33 C3.89453857 32.32420898 3.78907715 31.64841797 3.68041992 30.95214844 C3.19460022 27.88275908 2.69125508 24.81649456 2.1875 21.75 C2.02185547 20.68652344 1.85621094 19.62304688 1.68554688 18.52734375 C1.51474609 17.50253906 1.34394531 16.47773438 1.16796875 15.421875 C1.01610107 14.47924805 0.8642334 13.53662109 0.70776367 12.56542969 C-0.06018237 9.78185707 -1.25296231 8.25785861 -3 6 C-2.8125 3.3125 -2.8125 3.3125 -2 1 C-1.34 0.67 -0.68 0.34 0 0 Z " fill="#D3CFCE" transform="translate(316,140)"/>
<path d="M0 0 C1.65 0 3.3 0 5 0 C5 1.32 5 2.64 5 4 C4.34 4 3.68 4 3 4 C5.60262519 24.32250719 5.60262519 24.32250719 10.05078125 44.29296875 C11.79614264 51.1092155 12.86624017 58.06001559 14 65 C12.02 65.495 12.02 65.495 10 66 C10.33 66.99 10.66 67.98 11 69 C6.18615099 72.81788025 0.89352231 72.70067925 -5 73 C-5.33 72.34 -5.66 71.68 -6 71 C-5.236875 71.020625 -4.47375 71.04125 -3.6875 71.0625 C-0.89814214 71.12942841 -0.89814214 71.12942841 2 70 C2.99 70.33 3.98 70.66 5 71 C5.33 70.01 5.66 69.02 6 68 C6.99 68.33 7.98 68.66 9 69 C9 67.68 9 66.36 9 65 C9.99 65 10.98 65 12 65 C11.23419174 61.082334 10.46140149 57.1660746 9.6875 53.25 C9.47416016 52.15816406 9.26082031 51.06632812 9.04101562 49.94140625 C7.98511641 44.61463112 6.85529174 39.34477725 5.46875 34.09375 C3.71054188 27.21967222 2.7548238 20.27526229 1.8125 13.25 C1.63525391 11.96867188 1.45800781 10.68734375 1.27539062 9.3671875 C0.8444174 6.2455436 0.41939785 3.12321638 0 0 Z " fill="#FCF6F5" transform="translate(304,143)"/>
<path d="M0 0 C0.99 0.33 1.98 0.66 3 1 C3.91377136 5.66023391 4.40616073 8.78921872 2 13 C-1.22791555 15.1519437 -2.28400809 15.20086443 -6 15 C-5.54771375 17.39711711 -5.0883992 19.79252818 -4.625 22.1875 C-4.49867188 22.86103516 -4.37234375 23.53457031 -4.2421875 24.22851562 C-3.50094991 28.02735827 -2.47779436 31.43291016 -1 35 C-0.875 37.8125 -0.875 37.8125 -1 40 C-2.485 40.495 -2.485 40.495 -4 41 C-4.226875 41.66 -4.45375 42.32 -4.6875 43 C-6 45 -6 45 -9.75 45.8125 C-13.30371738 46.09783497 -16.50957354 45.78534595 -20 45 C-19.34 43.68 -18.68 42.36 -18 41 C-17.01 41.66 -16.02 42.32 -15 43 C-12.71351152 43.24107326 -12.71351152 43.24107326 -10.3125 43.125 C-9.50425781 43.10695312 -8.69601562 43.08890625 -7.86328125 43.0703125 C-7.24839844 43.04710937 -6.63351562 43.02390625 -6 43 C-6 42.01 -6 41.02 -6 40 C-4.02 39.505 -4.02 39.505 -2 39 C-2.34933594 38.19175781 -2.69867188 37.38351563 -3.05859375 36.55078125 C-3.74115234 34.94783203 -3.74115234 34.94783203 -4.4375 33.3125 C-4.88996094 32.25675781 -5.34242188 31.20101562 -5.80859375 30.11328125 C-8.16476016 23.95634804 -8.08704595 18.52844618 -8 12 C-4.7 10.35 -1.4 8.7 2 7 C1.34 4.69 0.68 2.38 0 0 Z " fill="#FAF6F5" transform="translate(349,165)"/>
<path d="M0 0 C2.98205122 2.55604391 4.58490064 5.35053322 6 9 C5.625 11.125 5.625 11.125 4 13 C2.25807472 14.09599605 0.50169694 15.06166231 -1.34375 15.97265625 C-3.33047815 17.04647811 -3.33047815 17.04647811 -5 20 C-6.66220581 21.00739746 -8.33020674 22.00522955 -10 23 C-12.23283014 24.73023737 -14.43225996 26.49572548 -16.62109375 28.28125 C-19.28974543 30.20933988 -22.04839908 31.54667366 -25 33 C-33.24603352 38.11899517 -40.978359 43.84333066 -48.44921875 50.02734375 C-49.64998047 51.00380859 -49.64998047 51.00380859 -50.875 52 C-51.59429687 52.598125 -52.31359375 53.19625 -53.0546875 53.8125 C-54.01761719 54.4003125 -54.01761719 54.4003125 -55 55 C-55.99 54.67 -56.98 54.34 -58 54 C-57.28457031 53.46632812 -56.56914062 52.93265625 -55.83203125 52.3828125 C-54.33736328 51.26519531 -54.33736328 51.26519531 -52.8125 50.125 C-52.27222168 49.72224854 -51.73194336 49.31949707 -51.17529297 48.90454102 C-48.35230432 46.79278935 -45.55403463 44.65912362 -42.80078125 42.45703125 C-36.60967075 37.5304434 -30.38984273 33.25353575 -23.40478516 29.51147461 C-20.11735899 27.8715769 -20.11735899 27.8715769 -18 25 C-17.030625 24.525625 -16.06125 24.05125 -15.0625 23.5625 C-11.78256825 22.20367158 -11.78256825 22.20367158 -10 19 C-7.10937238 17.0982713 -4.1156341 15.50012012 -1 14 C-1 13.34 -1 12.68 -1 12 C0.32 11.67 1.64 11.34 3 11 C2.32829194 7.1936543 1.27253436 3.64793184 0 0 Z " fill="#FBF3F2" transform="translate(387,58)"/>
<path d="M0 0 C-1.14704586 3.44113759 -1.67222358 3.71010281 -4.625 5.5625 C-7.72834552 7.5314503 -10.78645 9.53542531 -13.79296875 11.6484375 C-14.45538574 12.10790771 -15.11780273 12.56737793 -15.80029297 13.04077148 C-17.12979768 13.96361745 -18.45321532 14.89530221 -19.77001953 15.83618164 C-24.50948932 19.08492213 -24.50948932 19.08492213 -27.2097168 18.61743164 C-27.80051025 18.4136792 -28.39130371 18.20992676 -29 18 C-28.64281443 15.3153472 -28.31017444 14.25426317 -26.1796875 12.5078125 C-25.41914062 12.05148438 -24.65859375 11.59515625 -23.875 11.125 C-20.66706074 9.14228002 -18.00372764 7.13704185 -15.3125 4.5 C-13.640625 2.9921875 -13.640625 2.9921875 -12 2 C-8.5625 2.625 -8.5625 2.625 -6 4 C-5.38125 3.34 -4.7625 2.68 -4.125 2 C-2 0 -2 0 0 0 Z " fill="#F4E7E7" transform="translate(82,235)"/>
<path d="M0 0 C0.66 0.33 1.32 0.66 2 1 C1.73445313 2.03898438 1.46890625 3.07796875 1.1953125 4.1484375 C0.83801479 5.55715814 0.48128241 6.96602224 0.125 8.375 C-0.060625 9.10726807 -0.24625 9.83953613 -0.4375 10.59399414 C-1.42274271 14.52759301 -2.30322846 18.44056508 -3 22.4375 C-4.23248325 28.84857517 -6.46325274 36.09170782 -12 40 C-15.25 40.75 -15.25 40.75 -18 41 C-19.125 39.3125 -19.125 39.3125 -20 37 C-19.125 34.25 -19.125 34.25 -18 32 C-17.67 32.99 -17.34 33.98 -17 35 C-14.03 34.34 -11.06 33.68 -8 33 C-7.7525 31.845 -7.505 30.69 -7.25 29.5 C-6.54470625 26.30062401 -5.78458472 23.12000089 -4.9765625 19.9453125 C-4.79577148 19.23439453 -4.61498047 18.52347656 -4.42871094 17.79101562 C-4.06269385 16.35922392 -3.69360518 14.92821354 -3.32128906 13.49804688 C-2.57571009 10.58056395 -2 8.02502119 -2 5 C-2.928125 5.845625 -3.85625 6.69125 -4.8125 7.5625 C-6.39453125 9.00390625 -6.39453125 9.00390625 -8 10 C-8.99 9.67 -9.98 9.34 -11 9 C-9.93458984 8.15115234 -9.93458984 8.15115234 -8.84765625 7.28515625 C-7.92855469 6.55167969 -7.00945312 5.81820312 -6.0625 5.0625 C-5.14597656 4.33160156 -4.22945312 3.60070312 -3.28515625 2.84765625 C-1.59148731 1.48061289 -1.59148731 1.48061289 0 0 Z " fill="#F6F3F3" transform="translate(93,225)"/>
<path d="M0 0 C0 0.99 0 1.98 0 3 C-2.1663606 4.94378931 -4.30596811 6.69472654 -6.625 8.4375 C-7.55119141 9.15389648 -7.55119141 9.15389648 -8.49609375 9.88476562 C-12.23240419 12.75189226 -16.06997327 15.4024716 -20 18 C-21.010625 18.804375 -22.02125 19.60875 -23.0625 20.4375 C-26.20307653 22.71218453 -29.35327054 23.95110371 -33 25.25 C-41.59732823 28.37811247 -50.13844128 33.02620418 -57.24609375 38.8359375 C-58.11427734 39.41214844 -58.11427734 39.41214844 -59 40 C-59.99 39.67 -60.98 39.34 -62 39 C-61.34 37.35 -60.68 35.7 -60 34 C-59.67 34.66 -59.34 35.32 -59 36 C-58.34128906 35.59523437 -57.68257812 35.19046875 -57.00390625 34.7734375 C-53.36489119 32.62504629 -49.66669367 30.61176654 -45.9375 28.625 C-45.18670166 28.22434326 -44.43590332 27.82368652 -43.66235352 27.41088867 C-39.32991511 25.13068227 -35.00208789 23.09990878 -30.4375 21.3125 C-25.21411523 19.22172862 -21.33300697 16.53294536 -17 13 C-14.94226491 11.45197911 -12.87943037 9.91072172 -10.8125 8.375 C-7.15618673 5.6435471 -3.54994687 2.86851283 0 0 Z " fill="#FAEFEE" transform="translate(257,118)"/>
<path d="M0 0 C2 2 2 2 2.125 4.625 C2.08375 5.40875 2.0425 6.1925 2 7 C1.34 7 0.68 7 0 7 C-0.06574219 7.61488281 -0.13148438 8.22976562 -0.19921875 8.86328125 C-1 11 -1 11 -3.14453125 12.23046875 C-4.46517578 12.70419922 -4.46517578 12.70419922 -5.8125 13.1875 C-6.68519531 13.51105469 -7.55789063 13.83460938 -8.45703125 14.16796875 C-10.60961175 14.87226928 -12.80275208 15.45068802 -15 16 C-13.35 21.94 -11.7 27.88 -10 34 C-10.99 34.495 -10.99 34.495 -12 35 C-12.65192688 32.50145233 -13.29663064 30.0013863 -13.9375 27.5 C-14.11990234 26.80390625 -14.30230469 26.1078125 -14.49023438 25.390625 C-15.70965566 20.60162506 -16.47422365 15.91462529 -17 11 C-16.26394531 10.73445312 -15.52789062 10.46890625 -14.76953125 10.1953125 C-13.79371094 9.84210938 -12.81789063 9.48890625 -11.8125 9.125 C-10.84957031 8.77695313 -9.88664062 8.42890625 -8.89453125 8.0703125 C-7.93933594 7.71710938 -6.98414063 7.36390625 -6 7 C-4.6078125 6.52046875 -4.6078125 6.52046875 -3.1875 6.03125 C-2.465625 5.6909375 -1.74375 5.350625 -1 5 C-0.10613836 2.45224694 -0.10613836 2.45224694 0 0 Z " fill="#FCF8F7" transform="translate(351,133)"/>
<path d="M0 0 C2.14688657 3.61547813 2.67285567 7.16002709 3.32421875 11.28515625 C3.43474075 11.98265488 3.54526276 12.6801535 3.65913391 13.39878845 C3.89008561 14.86828761 4.11765405 16.33832201 4.34204102 17.80883789 C4.687095 20.05985793 5.04692576 22.30817408 5.40820312 24.55664062 C5.63110038 25.98684043 5.85313525 27.41717495 6.07421875 28.84765625 C6.27619873 30.14711182 6.47817871 31.44656738 6.6862793 32.78540039 C7 36 7 36 6 39 C5.34 39 4.68 39 4 39 C3.17680015 35.23142285 2.3684703 31.45979626 1.5625 27.6875 C1.33240234 26.63498047 1.10230469 25.58246094 0.86523438 24.49804688 C-3.20208107 5.34040165 -3.20208107 5.34040165 0 0 Z " fill="#D5CDCC" transform="translate(248,183)"/>
<path d="M0 0 C0.33 0 0.66 0 1 0 C1.08040527 0.87736816 1.16081055 1.75473633 1.24365234 2.65869141 C1.54738636 5.93563911 1.85750587 9.21185504 2.171875 12.48779297 C2.30624801 13.90161664 2.43812409 15.31568006 2.56738281 16.72998047 C2.7543868 18.77120097 2.95056601 20.81137021 3.1484375 22.8515625 C3.26364746 24.07697754 3.37885742 25.30239258 3.49755859 26.56494141 C3.9907248 29.93658792 4.70871568 32.84856032 6 36 C6.66 36.33 7.32 36.66 8 37 C8 38.32 8 39.64 8 41 C6.35 40.67 4.7 40.34 3 40 C2.773125 39.05125 2.54625 38.1025 2.3125 37.125 C1.13199568 32.86303221 -0.92430494 29.17765173 -3.07421875 25.33203125 C-4.12091616 22.69541373 -3.98924927 21.60802081 -3 19 C-2.34 20.32 -1.68 21.64 -1 23 C-1.01160156 22.01 -1.02320313 21.02 -1.03515625 20 C-1.0897219 13.26199467 -1.08898024 6.67000397 0 0 Z M0 26 C0.66 27.32 1.32 28.64 2 30 C1.67 28.68 1.34 27.36 1 26 C0.67 26 0.34 26 0 26 Z M3 32 C4 34 4 34 4 34 Z " fill="#DBD2D1" transform="translate(130,214)"/>
<path d="M0 0 C0.8971875 0.309375 0.8971875 0.309375 1.8125 0.625 C1.5625 3 1.5625 3 0.8125 5.625 C0.18585449 5.93638916 -0.44079102 6.24777832 -1.08642578 6.56860352 C-3.54245001 7.80346487 -4.20935036 8.79032214 -5.5546875 11.15234375 C-5.96243408 11.85665527 -6.37018066 12.5609668 -6.7902832 13.28662109 C-7.21011475 14.03766113 -7.62994629 14.78870117 -8.0625 15.5625 C-8.50231201 16.33158691 -8.94212402 17.10067383 -9.39526367 17.89306641 C-10.67042857 20.13099604 -11.93043933 22.37686541 -13.1875 24.625 C-13.78433594 25.67558594 -14.38117188 26.72617188 -14.99609375 27.80859375 C-18.41523419 33.927523 -21.380626 40.20396523 -24.1875 46.625 C-24.8475 46.295 -25.5075 45.965 -26.1875 45.625 C-22.01830912 34.87389203 -16.17587428 24.86443092 -10.5546875 14.82421875 C-10.16120117 14.11958496 -9.76771484 13.41495117 -9.36230469 12.68896484 C-8.57960562 11.31387384 -7.7780438 9.94934848 -6.95800781 8.59619141 C-5.97933988 6.97109861 -5.07558443 5.30131248 -4.1875 3.625 C-4.5175 2.965 -4.8475 2.305 -5.1875 1.625 C-2.1875 -0.375 -2.1875 -0.375 0 0 Z " fill="#FAF2F1" transform="translate(192.1875,134.375)"/>
<path d="M0 0 C0.33 0 0.66 0 1 0 C1.28587371 4.49846562 1.52223278 8.99824786 1.75 13.5 C1.83121094 14.7684375 1.91242188 16.036875 1.99609375 17.34375 C2.34660808 24.82138905 2.12610002 29.66691625 -2 36 C-2.66 36 -3.32 36 -4 36 C-4.33 36.99 -4.66 37.98 -5 39 C-9.75 40.125 -9.75 40.125 -12 39 C-12 39.66 -12 40.32 -12 41 C-18.19315403 44.03585982 -18.19315403 44.03585982 -21.8125 43.875 C-24 43 -24 43 -26 40 C-23.03 40.33 -20.06 40.66 -17 41 C-16.67 40.34 -16.34 39.68 -16 39 C-15.01 39.33 -14.02 39.66 -13 40 C-13 38.68 -13 37.36 -13 36 C-10.69 36.66 -8.38 37.32 -6 38 C-5.87625 37.2575 -5.7525 36.515 -5.625 35.75 C-5.02774174 33.12206365 -4.47239526 31.24734013 -3 29 C-0.875 27.75 -0.875 27.75 1 27 C0.67 26.34 0.34 25.68 0 25 C-0.084915 23.1136088 -0.107193 21.22421485 -0.09765625 19.3359375 C-0.09443359 18.21445313 -0.09121094 17.09296875 -0.08789062 15.9375 C-0.07951172 14.761875 -0.07113281 13.58625 -0.0625 12.375 C-0.05798828 11.19164062 -0.05347656 10.00828125 -0.04882812 8.7890625 C-0.03701467 5.85932493 -0.02054258 2.92968728 0 0 Z " fill="#FBFBFB" transform="translate(144,217)"/>
<path d="M0 0 C-0.5 1.89453125 -0.5 1.89453125 -2 4 C-4.74006152 4.764737 -7.20755357 5.2896252 -10 5.6875 C-15.15007132 6.33392091 -15.15007132 6.33392091 -20 8 C-21.49649362 8.12005453 -22.99874793 8.17531451 -24.5 8.1875 C-25.2940625 8.20167969 -26.088125 8.21585938 -26.90625 8.23046875 C-29 8 -29 8 -31 6 C-24.19096558 4.18167831 -17.36155798 2.6166782 -10.4375 1.3125 C-9.74720703 1.18125732 -9.05691406 1.05001465 -8.34570312 0.91479492 C-5.51403126 0.3927842 -2.88651826 0 0 0 Z " fill="#C9C4C4" transform="translate(294,211)"/>
<path d="M0 0 C1.13115234 0.07831055 1.13115234 0.07831055 2.28515625 0.15820312 C4.1487937 0.28795004 6.01194996 0.42457488 7.875 0.5625 C7.875 0.8925 7.875 1.2225 7.875 1.5625 C2.43 2.0575 2.43 2.0575 -3.125 2.5625 C-3.125 3.2225 -3.125 3.8825 -3.125 4.5625 C-2.465 4.8925 -1.805 5.2225 -1.125 5.5625 C-0.62255859 7.51196289 -0.62255859 7.51196289 -0.2734375 10.03515625 C-0.08007812 11.38383789 -0.08007812 11.38383789 0.1171875 12.75976562 C0.24351562 13.70529297 0.36984375 14.65082031 0.5 15.625 C0.6340625 16.57439453 0.768125 17.52378906 0.90625 18.50195312 C1.23725648 20.85446345 1.55978072 23.20783094 1.875 25.5625 C0.885 25.2325 -0.105 24.9025 -1.125 24.5625 C-2.07421875 22.234375 -2.07421875 22.234375 -2.8125 19.3125 C-3.06386719 18.35859375 -3.31523437 17.4046875 -3.57421875 16.421875 C-4.09725123 13.70655746 -4.22474584 11.31738498 -4.125 8.5625 C-4.125 7.9025 -4.125 7.2425 -4.125 6.5625 C-6.105 5.5725 -8.085 4.5825 -10.125 3.5625 C-10.125 2.5725 -10.125 1.5825 -10.125 0.5625 C-6.91158631 -1.04420684 -3.49541032 -0.26260855 0 0 Z " fill="#DBD5D5" transform="translate(199.125,165.4375)"/>
<path d="M0 0 C0.66 0.33 1.32 0.66 2 1 C0.1875 3.5 0.1875 3.5 -2 6 C-2.99 6 -3.98 6 -5 6 C-4.54857225 7.77260631 -4.08859477 9.5430368 -3.625 11.3125 C-3.36976562 12.29863281 -3.11453125 13.28476563 -2.8515625 14.30078125 C-2.08086826 17.1805816 -2.08086826 17.1805816 0 20 C-0.25 23.125 -0.25 23.125 -1 26 C-1.66 26.33 -2.32 26.66 -3 27 C-5.56691595 21.73483752 -7.76178872 16.95528203 -8 11 C-7.34 10.01 -6.68 9.02 -6 8 C-7.32 8.99 -8.64 9.98 -10 11 C-10.66 10.67 -11.32 10.34 -12 10 C-10.37982158 8.66081194 -8.75370657 7.3288031 -7.125 6 C-6.22007813 5.2575 -5.31515625 4.515 -4.3828125 3.75 C-2 2 -2 2 0 2 C0 1.34 0 0.68 0 0 Z " fill="#D6D0D0" transform="translate(111,211)"/>
<path d="M0 0 C0.66 0.66 1.32 1.32 2 2 C1.67 2.99 1.34 3.98 1 5 C0.34 4.67 -0.32 4.34 -1 4 C-0.89300781 5.29035156 -0.78601563 6.58070313 -0.67578125 7.91015625 C-0.55378131 9.62754003 -0.43273822 11.34499198 -0.3125 13.0625 C-0.23966797 13.91005859 -0.16683594 14.75761719 -0.09179688 15.63085938 C0.28159173 21.31954458 -0.16142093 25.00845802 -3 30 C-4.5859375 31.5390625 -4.5859375 31.5390625 -6.375 32.625 C-13.0295505 37.16106064 -18.40642179 43.25293946 -24 49 C-24.66 48.67 -25.32 48.34 -26 48 C-25.30849854 47.35039307 -24.61699707 46.70078613 -23.90454102 46.03149414 C-21.32923028 43.59317493 -18.77344517 41.13734023 -16.22827148 38.66772461 C-15.12671133 37.60620358 -14.01805234 36.55199526 -12.90209961 35.50561523 C-5.34645562 28.89119453 -5.34645562 28.89119453 -1.75390625 19.90625 C-1.95202087 16.76157345 -2.22205052 14.03400297 -3 11 C-3.3753394 8.33759255 -3.68319117 5.67024583 -4 3 C-2.68 2.67 -1.36 2.34 0 2 C0 1.34 0 0.68 0 0 Z " fill="#D7CECD" transform="translate(247,154)"/>
<path d="M0 0 C0.33 0.66 0.66 1.32 1 2 C-0.4375 4.625 -0.4375 4.625 -2 7 C-0.68 7.66 0.64 8.32 2 9 C0.6875 10.5 0.6875 10.5 -1 12 C-1.99 12 -2.98 12 -4 12 C-4.33 12.66 -4.66 13.32 -5 14 C-8.46153846 17 -8.46153846 17 -12 17 C-11.41246271 13.9249292 -10.54526011 12.12098863 -8.49609375 9.765625 C-7.75649414 8.90517578 -7.75649414 8.90517578 -7.00195312 8.02734375 C-6.48568359 7.44082031 -5.96941406 6.85429687 -5.4375 6.25 C-4.91736328 5.64800781 -4.39722656 5.04601562 -3.86132812 4.42578125 C-2.58043726 2.94511841 -1.29103688 1.47182458 0 0 Z " fill="#B54546" transform="translate(210,137)"/>
<path d="M0 0 C0 4.46253766 -2.11651758 7.65671903 -5 11 C-7.8125 11.5 -7.8125 11.5 -10 11 C-10 11.99 -10 12.98 -10 14 C-11.32 14.33 -12.64 14.66 -14 15 C-14 15.66 -14 16.32 -14 17 C-15.53125 18.2890625 -15.53125 18.2890625 -17.5 19.625 C-18.1496875 20.07101563 -18.799375 20.51703125 -19.46875 20.9765625 C-19.9740625 21.31429687 -20.479375 21.65203125 -21 22 C-21.66 21.67 -22.32 21.34 -23 21 C-22.38125 20.7525 -21.7625 20.505 -21.125 20.25 C-18.88741334 19.20432664 -18.88741334 19.20432664 -18.16015625 17.1953125 C-16.65988575 14.35641681 -14.72759906 12.73312628 -12.3125 10.625 C-11.42433594 9.84511719 -10.53617188 9.06523437 -9.62109375 8.26171875 C-8.75613281 7.51535156 -7.89117187 6.76898438 -7 6 C-6.26910156 5.36707031 -5.53820312 4.73414063 -4.78515625 4.08203125 C-3.19630207 2.71412202 -1.59917837 1.35582514 0 0 Z " fill="#BA4D4E" transform="translate(188,137)"/>
<path d="M0 0 C2 3 2 3 1.8125 6.4375 C1.02781665 9.87803467 0.61550669 11.66472617 -2 14 C-2.804375 13.95875 -3.60875 13.9175 -4.4375 13.875 C-5.7059375 13.936875 -5.7059375 13.936875 -7 14 C-9.35322796 16.90412546 -9.35322796 16.90412546 -11 20 C-11.99 19.67 -12.98 19.34 -14 19 C-13.67 18.34 -13.34 17.68 -13 17 C-12.34 17.33 -11.68 17.66 -11 18 C-11 16.68 -11 15.36 -11 14 C-10.34 14 -9.68 14 -9 14 C-9 11.69 -9 9.38 -9 7 C-8.67 7.66 -8.34 8.32 -8 9 C-7.4225 8.814375 -6.845 8.62875 -6.25 8.4375 C-4 8 -4 8 0 9 C0 6.03 0 3.06 0 0 Z " fill="#E2DEDE" transform="translate(219,216)"/>
<path d="M0 0 C3.12019932 3.12019932 3.65837548 6.67275608 4 11 C3.56025318 14.3420758 2.75939509 17.11310525 1 20 C-3.19797045 22.38521048 -7.24469285 22.19021229 -12 22 C-11.01 21.67 -10.02 21.34 -9 21 C-8.67 20.01 -8.34 19.02 -8 18 C-8 18.66 -8 19.32 -8 20 C-7.01 20 -6.02 20 -5 20 C-5.061875 19.2575 -5.12375 18.515 -5.1875 17.75 C-4.96905704 14.54616994 -4.09749995 13.35968744 -2 11 C-1.67 11.99 -1.34 12.98 -1 14 C-0.34 14 0.32 14 1 14 C0.67 9.38 0.34 4.76 0 0 Z " fill="#FBF9F8" transform="translate(192,220)"/>
<path d="M0 0 C0.33 0.99 0.66 1.98 1 3 C1.99 3.33 2.98 3.66 4 4 C6.62217335 11.73541138 5.84500061 18.97249416 5 27 C4.67 27 4.34 27 4 27 C3.32409812 23.62678224 2.66094482 20.25117758 2 16.875 C1.80921875 15.92367187 1.6184375 14.97234375 1.421875 13.9921875 C0.50243109 9.26361884 -0.2609763 4.84437265 0 0 Z " fill="#DCDAD8" transform="translate(197,187)"/>
<path d="M0 0 C0.99 0.33 1.98 0.66 3 1 C3.91377136 5.66023391 4.40616073 8.78921872 2 13 C-1.4352048 15.29013653 -2.985331 15.17842973 -7 15 C-7 17.31 -7 19.62 -7 22 C-7.33 22 -7.66 22 -8 22 C-8 18.7 -8 15.4 -8 12 C-4.7 10.35 -1.4 8.7 2 7 C1.34 4.69 0.68 2.38 0 0 Z " fill="#E8DAD9" transform="translate(349,165)"/>
<path d="M0 0 C0.33 0 0.66 0 1 0 C1.99 3.3 2.98 6.6 4 10 C4.99 9.34 5.98 8.68 7 8 C8 9 8 9 8.0625 11.5625 C8.041875 12.366875 8.02125 13.17125 8 14 C5.36 14.33 2.72 14.66 0 15 C-1.67479795 9.97560615 -1.23615622 5.09914442 0 0 Z " fill="#CFC8C8" transform="translate(179,226)"/>
<path d="M0 0 C1.24546405 2.49092811 0.7767578 3.41080733 0 6 C1.32 6 2.64 6 4 6 C4.66 5.34 5.32 4.68 6 4 C6 4.99 6 5.98 6 7 C6.99 7.33 7.98 7.66 9 8 C8.67 9.32 8.34 10.64 8 12 C7.2575 11.649375 6.515 11.29875 5.75 10.9375 C2.8677274 9.95490707 1.78823655 9.9673198 -1 11 C-2.0625 8.625 -2.0625 8.625 -3 6 C-2.67 5.34 -2.34 4.68 -2 4 C-2 3.01 -2 2.02 -2 1 C-1.34 0.67 -0.68 0.34 0 0 Z " fill="#C7B0B0" transform="translate(367,268)"/>
<path d="M0 0 C0 6 0 6 -2.25 8.5625 C-4.51797524 10.57275078 -6.23189141 11.87225206 -9 13 C-9.66 11.68 -10.32 10.36 -11 9 C-7.36548742 5.95715225 -3.71232945 2.94802633 0 0 Z " fill="#BF5354" transform="translate(83,227)"/>
<path d="M0 0 C0.33 0 0.66 0 1 0 C1.53259544 3.10226799 2.04902975 6.20701398 2.5625 9.3125 C2.71396484 10.19357422 2.86542969 11.07464844 3.02148438 11.98242188 C3.16005859 12.82998047 3.29863281 13.67753906 3.44140625 14.55078125 C3.57232666 15.33106689 3.70324707 16.11135254 3.83813477 16.9152832 C4 19 4 19 3 22 C2.34 22 1.68 22 1 22 C-1.16410238 14.69615448 -2.13362486 7.44208352 0 0 Z " fill="#D3CECE" transform="translate(251,200)"/>
<path d="M0 0 C2.0625 0.4375 2.0625 0.4375 4 1 C3.67 1.99 3.34 2.98 3 4 C1.35 4 -0.3 4 -2 4 C-2 4.66 -2 5.32 -2 6 C-8.625 9 -8.625 9 -12 9 C-12 7.68 -12 6.36 -12 5 C-10.82630859 4.58427734 -10.82630859 4.58427734 -9.62890625 4.16015625 C-8.61699219 3.79792969 -7.60507812 3.43570313 -6.5625 3.0625 C-5.55316406 2.70285156 -4.54382813 2.34320313 -3.50390625 1.97265625 C-1.09686255 1.23122361 -1.09686255 1.23122361 0 0 Z " fill="#C9C1C1" transform="translate(346,139)"/>
<path d="M0 0 C0.66 0.33 1.32 0.66 2 1 C1.72285156 2.07378906 1.44570312 3.14757812 1.16015625 4.25390625 C0.79407904 5.69005529 0.42820442 7.12625599 0.0625 8.5625 C-0.11990234 9.26697266 -0.30230469 9.97144531 -0.49023438 10.69726562 C-1.6115514 15.12137098 -2.43456329 19.47055438 -3 24 C-3.66 24 -4.32 24 -5 24 C-4.7834375 22.87980469 -4.566875 21.75960937 -4.34375 20.60546875 C-4.06235597 19.13284001 -3.78111389 17.66018224 -3.5 16.1875 C-3.35691406 15.44951172 -3.21382813 14.71152344 -3.06640625 13.95117188 C-2.49073719 10.92205609 -2 8.090804 -2 5 C-2.928125 5.845625 -3.85625 6.69125 -4.8125 7.5625 C-6.39453125 9.00390625 -6.39453125 9.00390625 -8 10 C-8.99 9.67 -9.98 9.34 -11 9 C-9.93458984 8.15115234 -9.93458984 8.15115234 -8.84765625 7.28515625 C-7.92855469 6.55167969 -7.00945312 5.81820312 -6.0625 5.0625 C-5.14597656 4.33160156 -4.22945313 3.60070312 -3.28515625 2.84765625 C-1.59148731 1.48061289 -1.59148731 1.48061289 0 0 Z " fill="#FDF8F7" transform="translate(93,225)"/>
<path d="M0 0 C0.66 0.33 1.32 0.66 2 1 C2 2.32 2 3.64 2 5 C0.67288808 5.35729936 -0.66262906 5.68325425 -2 6 C-3.5159375 6.37125 -3.5159375 6.37125 -5.0625 6.75 C-8 7 -8 7 -9.875 5.75 C-11 4 -11 4 -11 1 C-7.37 1.33 -3.74 1.66 0 2 C0 1.34 0 0.68 0 0 Z " fill="#CAC5C5" transform="translate(129,252)"/>
<path d="M0 0 C0.33 0 0.66 0 1 0 C1.16783149 3.93243268 1.32836761 7.86508896 1.48217773 11.7980957 C1.56173399 13.7932891 1.64705005 15.78825011 1.73242188 17.78320312 C1.78076172 19.03681641 1.82910156 20.29042969 1.87890625 21.58203125 C1.9260376 22.73936768 1.97316895 23.8967041 2.02172852 25.08911133 C1.9972208 28.37231913 1.69688036 30.24736921 -0.5625 32.6875 C-1.036875 33.120625 -1.51125 33.55375 -2 34 C-2.99 33.67 -3.98 33.34 -5 33 C-3.95125002 30.37812506 -3.35068687 29.20628639 -0.875 27.75 C-0.25625 27.5025 0.3625 27.255 1 27 C0.67 26.34 0.34 25.68 0 25 C-0.084915 23.1136088 -0.107193 21.22421485 -0.09765625 19.3359375 C-0.09443359 18.21445313 -0.09121094 17.09296875 -0.08789062 15.9375 C-0.07951172 14.761875 -0.07113281 13.58625 -0.0625 12.375 C-0.05798828 11.19164062 -0.05347656 10.00828125 -0.04882812 8.7890625 C-0.03701467 5.85932493 -0.02054258 2.92968728 0 0 Z " fill="#F2EAEA" transform="translate(144,217)"/>
<path d="M0 0 C0.33 0 0.66 0 1 0 C1.07347656 1.19496094 1.07347656 1.19496094 1.1484375 2.4140625 C1.6173782 10.41241481 1.6173782 10.41241481 4 18 C4.66 18.33 5.32 18.66 6 19 C6 20.32 6 21.64 6 23 C4.35 22.67 2.7 22.34 1 22 C-0.76278827 16.16076384 -1.0186208 11.84146674 -0.5 5.8125 C-0.4071875 4.72582031 -0.314375 3.63914063 -0.21875 2.51953125 C-0.11046875 1.27236328 -0.11046875 1.27236328 0 0 Z M1 14 C2 16 2 16 2 16 Z " fill="#CDBBBA" transform="translate(132,232)"/>
<path d="M0 0 C1.91302307 3.26613695 2.35674661 5.99445248 2.625 9.75 C2.69976562 10.73484375 2.77453125 11.7196875 2.8515625 12.734375 C2.92503906 13.85585937 2.92503906 13.85585937 3 15 C1.0625 14.625 1.0625 14.625 -1 14 C-2.26237731 11.47524538 -2.09856404 9.68799534 -2.0625 6.875 C-2.05347656 5.96492187 -2.04445313 5.05484375 -2.03515625 4.1171875 C-2.02355469 3.41851562 -2.01195312 2.71984375 -2 2 C-1.34 2 -0.68 2 0 2 C0 1.34 0 0.68 0 0 Z " fill="#CAC0C0" transform="translate(296,187)"/>
<path d="M0 0 C0.99 0 1.98 0 3 0 C4.01259619 3.36992013 4.16555609 6.48897481 4.1875 10 C4.20167969 11.03125 4.21585938 12.0625 4.23046875 13.125 C4.00276947 15.96545203 3.46504061 17.59107948 2 20 C1.66254646 17.60468244 1.3299171 15.20885732 1 12.8125 C0.90460938 12.13896484 0.80921875 11.46542969 0.7109375 10.77148438 C0.21675387 7.15335423 -0.11346131 3.65203599 0 0 Z " fill="#D1CECE" transform="translate(175,215)"/>
<path d="M0 0 C0.33 0 0.66 0 1 0 C1.66 3.3 2.32 6.6 3 10 C1.68 10.33 0.36 10.66 -1 11 C-0.67 11.99 -0.34 12.98 0 14 C-4.81384901 17.81788025 -10.10647769 17.70067925 -16 18 C-16.33 17.34 -16.66 16.68 -17 16 C-16.236875 16.020625 -15.47375 16.04125 -14.6875 16.0625 C-11.89814214 16.12942841 -11.89814214 16.12942841 -9 15 C-8.01 15.33 -7.02 15.66 -6 16 C-5.67 15.01 -5.34 14.02 -5 13 C-4.01 13.33 -3.02 13.66 -2 14 C-2 12.68 -2 11.36 -2 10 C-1.01 10 -0.02 10 1 10 C0.67 9.01 0.34 8.02 0 7 C-0.03954234 4.66700175 -0.04401732 2.33291811 0 0 Z " fill="#FDFCFC" transform="translate(315,198)"/>
<path d="M0 0 C1.25 3.0625 1.25 3.0625 2 6 C1.34 6.66 0.68 7.32 0 8 C-2.0625 7.75 -2.0625 7.75 -4 7 C-5.24546405 4.50907189 -4.7767578 3.58919267 -4 1 C-4.99 0.67 -5.98 0.34 -7 0 C-2.85526316 -1.38157895 -2.85526316 -1.38157895 0 0 Z " fill="#B13637" transform="translate(350,166)"/>
<path d="M0 0 C0.66 0 1.32 0 2 0 C2.69710731 1.28650706 3.38242876 2.57940665 4.0625 3.875 C4.63677734 4.95394531 4.63677734 4.95394531 5.22265625 6.0546875 C5.47917969 6.69664062 5.73570313 7.33859375 6 8 C5 10 5 10 3 11 C0 9 0 9 -0.75 6.0625 C-1 3 -1 3 0 0 Z " fill="#D0C9C9" transform="translate(110,234)"/>
<path d="M0 0 C-1.43715947 3.64757321 -3.07711644 4.97325575 -6.5 6.8125 C-7.2940625 7.25207031 -8.088125 7.69164062 -8.90625 8.14453125 C-9.5971875 8.42683594 -10.288125 8.70914063 -11 9 C-11.66 8.67 -12.32 8.34 -13 8 C-9.4918251 4.18228025 -5.53544278 0 0 0 Z " fill="#BC4D4E" transform="translate(71,240)"/>
<path d="M0 0 C-1.35303489 4.05910468 -3.34436731 4.9213069 -7 7 C-8.32 7 -9.64 7 -11 7 C-11 6.34 -11 5.68 -11 5 C-12.65 5.66 -14.3 6.32 -16 7 C-14.68 5.35 -13.36 3.7 -12 2 C-10.02 2.66 -8.04 3.32 -6 4 C-5.071875 3.01 -5.071875 3.01 -4.125 2 C-2 0 -2 0 0 0 Z " fill="#DEA3A3" transform="translate(82,235)"/>
<path d="M0 0 C0 4.12873001 -0.89999909 7.56521621 -3.4375 10.875 C-5 12 -5 12 -8 12 C-7.41463247 8.33939179 -5.916761 6.45464836 -3.4375 3.75 C-2.79683594 3.04359375 -2.15617188 2.3371875 -1.49609375 1.609375 C-0.75552734 0.81273437 -0.75552734 0.81273437 0 0 Z " fill="#BC5F60" transform="translate(206,142)"/>
<path d="M0 0 C1.13115234 0.07831055 1.13115234 0.07831055 2.28515625 0.15820312 C4.1487937 0.28795004 6.01194996 0.42457488 7.875 0.5625 C7.875 0.8925 7.875 1.2225 7.875 1.5625 C6.73611328 1.63597656 6.73611328 1.63597656 5.57421875 1.7109375 C4.58035156 1.78570312 3.58648437 1.86046875 2.5625 1.9375 C1.08330078 2.04191406 1.08330078 2.04191406 -0.42578125 2.1484375 C-3.34028433 2.40115472 -3.34028433 2.40115472 -6.125 4.5625 C-8.3125 4.1875 -8.3125 4.1875 -10.125 3.5625 C-10.125 2.5725 -10.125 1.5825 -10.125 0.5625 C-6.91158631 -1.04420684 -3.49541032 -0.26260855 0 0 Z " fill="#D69999" transform="translate(199.125,165.4375)"/>
<path d="M0 0 C1.32 0 2.64 0 4 0 C2.94124926 3.40312738 1.99097846 6.01353231 0 9 C-0.99 8.67 -1.98 8.34 -3 8 C-3.6875 5.9375 -3.6875 5.9375 -4 4 C-2.68 3.67 -1.36 3.34 0 3 C0 2.01 0 1.02 0 0 Z " fill="#AC2829" transform="translate(178,148)"/>
<path d="M0 0 C0.33 0.66 0.66 1.32 1 2 C0.67 2.99 0.34 3.98 0 5 C-2.0625 5.6875 -2.0625 5.6875 -4 6 C-4 6.66 -4 7.32 -4 8 C-5.53125 9.2890625 -5.53125 9.2890625 -7.5 10.625 C-8.1496875 11.07101563 -8.799375 11.51703125 -9.46875 11.9765625 C-9.9740625 12.31429687 -10.479375 12.65203125 -11 13 C-11.66 12.67 -12.32 12.34 -13 12 C-12.38125 11.7525 -11.7625 11.505 -11.125 11.25 C-8.87964302 10.19397077 -8.87964302 10.19397077 -8.09375 8.125 C-6.84300193 5.69497518 -5.48330192 4.46787564 -3.375 2.75 C-2.74335938 2.22921875 -2.11171875 1.7084375 -1.4609375 1.171875 C-0.73777344 0.59179688 -0.73777344 0.59179688 0 0 Z " fill="#C67273" transform="translate(178,146)"/>
<path d="M0 0 C1.88451576 3.1598951 2.17717906 5.13111479 1.7578125 8.765625 C1.66113281 9.65507812 1.56445312 10.54453125 1.46484375 11.4609375 C1.35269531 12.38132813 1.24054688 13.30171875 1.125 14.25 C1.02058594 15.18585938 0.91617188 16.12171875 0.80859375 17.0859375 C0.54974279 19.39206426 0.27986553 21.69634497 0 24 C-0.33 24 -0.66 24 -1 24 C-1.02893932 20.37501666 -1.04677792 16.75006287 -1.0625 13.125 C-1.07087891 12.09246094 -1.07925781 11.05992187 -1.08789062 9.99609375 C-1.09111328 9.00996094 -1.09433594 8.02382812 -1.09765625 7.0078125 C-1.10289307 6.09660645 -1.10812988 5.18540039 -1.11352539 4.24658203 C-1 2 -1 2 0 0 Z " fill="#E7D0D0" transform="translate(144,205)"/>
<path d="M0 0 C0.66 0.99 1.32 1.98 2 3 C1.34 3 0.68 3 0 3 C0 6.3 0 9.6 0 13 C-0.33 13 -0.66 13 -1 13 C-1.33 14.65 -1.66 16.3 -2 18 C-2.66 18 -3.32 18 -4 18 C-3.48914188 11.56318772 -2.27057103 6.04057576 0 0 Z " fill="#EADBDB" transform="translate(366,262)"/>
<path d="M0 0 C0.66 0.66 1.32 1.32 2 2 C1.67 2.99 1.34 3.98 1 5 C0.34 4.67 -0.32 4.34 -1 4 C-0.67 8.95 -0.34 13.9 0 19 C-3.12778635 14.8296182 -3.41867591 13.69636318 -3.6875 8.75 C-3.75324219 7.67234375 -3.81898438 6.5946875 -3.88671875 5.484375 C-3.92410156 4.66453125 -3.96148437 3.8446875 -4 3 C-2.68 2.67 -1.36 2.34 0 2 C0 1.34 0 0.68 0 0 Z " fill="#D5B5B3" transform="translate(247,154)"/>
<path d="M0 0 C2 3 2 3 1.8125 6.4375 C1.03703201 9.83762889 0.32086189 11.47732403 -2 14 C-3.32 13.67 -4.64 13.34 -6 13 C-5.01 13 -4.02 13 -3 13 C-3.33 11.68 -3.66 10.36 -4 9 C-2.68 9 -1.36 9 0 9 C0 6.03 0 3.06 0 0 Z " fill="#F1E9E9" transform="translate(219,216)"/>
<path d="M0 0 C0 0.99 0 1.98 0 3 C-0.69480469 2.83628906 -1.38960938 2.67257813 -2.10546875 2.50390625 C-5.2352816 1.95904004 -8.13798083 1.90261517 -11.3125 1.9375 C-12.91544922 1.95103516 -12.91544922 1.95103516 -14.55078125 1.96484375 C-15.35902344 1.97644531 -16.16726563 1.98804688 -17 2 C-11.5534304 -1.6310464 -6.25457038 -1.14879864 0 0 Z " fill="#CB8384" transform="translate(351,130)"/>
<path d="M0 0 C3.96102341 0.56586049 6.83015311 1.51552541 10 4 C11.3125 7.1875 11.3125 7.1875 12 10 C10.29159719 8.36587557 9.06546953 7.13093906 8 5 C5.7004039 3.64663567 5.7004039 3.64663567 3 3 C0.7142289 3.76603959 0.7142289 3.76603959 -1 5 C-0.67 3.35 -0.34 1.7 0 0 Z " fill="#DBA5A5" transform="translate(96,184)"/>
<path d="M0 0 C0.66 0 1.32 0 2 0 C2.99 2.97 3.98 5.94 5 9 C3.35 8.67 1.7 8.34 0 8 C-0.33 6.35 -0.66 4.7 -1 3 C-0.34 3 0.32 3 1 3 C0.67 2.01 0.34 1.02 0 0 Z " fill="#C5B9BA" transform="translate(146,210)"/>
<path d="M0 0 C2.4375 1.125 2.4375 1.125 4.3125 3.9375 C5.4375 7.125 5.4375 7.125 4.4375 11.125 C3.4475 8.485 2.4575 5.845 1.4375 3.125 C0.674375 3.29 -0.08875 3.455 -0.875 3.625 C-3.5625 4.125 -3.5625 4.125 -6.5625 4.125 C-3.32000577 0.1619515 -3.32000577 0.1619515 0 0 Z " fill="#DEA6A7" transform="translate(147.5625,179.875)"/>
<path d="M0 0 C0.33 0.99 0.66 1.98 1 3 C1.99 3.33 2.98 3.66 4 4 C3.67 5.32 3.34 6.64 3 8 C1.68 7.67 0.36 7.34 -1 7 C-1 6.01 -1 5.02 -1 4 C-1.99 4 -2.98 4 -4 4 C-3.67 3.34 -3.34 2.68 -3 2 C-2.34 2 -1.68 2 -1 2 C-0.67 1.34 -0.34 0.68 0 0 Z " fill="#CCB8B9" transform="translate(372,272)"/>
<path d="M0 0 C0.66 0.33 1.32 0.66 2 1 C-1.14733694 5.53216519 -4.13230481 7.61040418 -9 10 C-9.99 10 -10.98 10 -12 10 C-10.37982158 8.66081194 -8.75370657 7.3288031 -7.125 6 C-6.22007813 5.2575 -5.31515625 4.515 -4.3828125 3.75 C-2 2 -2 2 0 2 C0 1.34 0 0.68 0 0 Z " fill="#FAEDEB" transform="translate(111,211)"/>
<path d="M0 0 C0.33 1.32 0.66 2.64 1 4 C-4.75 6 -4.75 6 -7 6 C-6.875 4.125 -6.875 4.125 -6 2 C-2.9375 0.75 -2.9375 0.75 0 0 Z " fill="#CBC5C4" transform="translate(82,258)"/>
<path d="M0 0 C0.66 0.33 1.32 0.66 2 1 C-4.26637555 7.44541485 -4.26637555 7.44541485 -8 10 C-8.99 9.67 -9.98 9.34 -11 9 C-9.93458984 8.15115234 -9.93458984 8.15115234 -8.84765625 7.28515625 C-7.92855469 6.55167969 -7.00945312 5.81820312 -6.0625 5.0625 C-5.14597656 4.33160156 -4.22945313 3.60070312 -3.28515625 2.84765625 C-1.59148731 1.48061289 -1.59148731 1.48061289 0 0 Z " fill="#FBECEC" transform="translate(93,225)"/>
<path d="M0 0 C0.33 1.32 0.66 2.64 1 4 C-0.9375 6.25 -0.9375 6.25 -3 8 C-3 7.34 -3 6.68 -3 6 C-4.32 5.67 -5.64 5.34 -7 5 C-4.69 3.35 -2.38 1.7 0 0 Z " fill="#BA3939" transform="translate(145,182)"/>
<path d="M0 0 C0 3.19610552 -0.54671542 4.41717626 -2 7.1875 C-2.37125 7.90292969 -2.7425 8.61835938 -3.125 9.35546875 C-3.558125 10.16951172 -3.558125 10.16951172 -4 11 C-4.99 10.67 -5.98 10.34 -7 10 C-6.67 8.68 -6.34 7.36 -6 6 C-5.67 6.66 -5.34 7.32 -5 8 C-4.360625 6.865625 -3.72125 5.73125 -3.0625 4.5625 C-1.125 1.125 -1.125 1.125 0 0 Z " fill="#F7EAEA" transform="translate(162,185)"/>
<path d="M0 0 C0 3 0 3 -1 6 C-1.66 6 -2.32 6 -3 6 C-3 6.66 -3 7.32 -3 8 C-4.32 7.34 -5.64 6.68 -7 6 C-6.34 6 -5.68 6 -5 6 C-4.731875 5.38125 -4.46375 4.7625 -4.1875 4.125 C-3 2 -3 2 0 0 Z " fill="#BF6667" transform="translate(308,79)"/>
<path d="M0 0 C1.32 0.33 2.64 0.66 4 1 C4 1.66 4 2.32 4 3 C-1.2734375 6.22265625 -1.2734375 6.22265625 -3 7 C-3.66 6.67 -4.32 6.34 -5 6 C-3.35 4.02 -1.7 2.04 0 0 Z " fill="#C87170" transform="translate(357,20)"/>
<path d="M0 0 C0.33 0 0.66 0 1 0 C1.33 3.63 1.66 7.26 2 11 C1.01 11.495 1.01 11.495 0 12 C-1.31157516 9.37684968 -0.89649988 7.76966564 -0.5625 4.875 C-0.46066406 3.96492187 -0.35882813 3.05484375 -0.25390625 2.1171875 C-0.17011719 1.41851562 -0.08632812 0.71984375 0 0 Z " fill="#C6B9B8" transform="translate(251,200)"/>
<path d="M0 0 C0.66 0 1.32 0 2 0 C2.33 1.65 2.66 3.3 3 5 C1.68 5.33 0.36 5.66 -1 6 C-1.33 5.01 -1.66 4.02 -2 3 C-2.66 2.67 -3.32 2.34 -4 2 C-2.68 2 -1.36 2 0 2 C0 1.34 0 0.68 0 0 Z " fill="#AC3131" transform="translate(344,199)"/>
<path d="M0 0 C0.33 0 0.66 0 1 0 C1.05399736 1.45792884 1.09279177 2.91642712 1.125 4.375 C1.14820313 5.18710938 1.17140625 5.99921875 1.1953125 6.8359375 C1 9 1 9 -1 11 C-1.33 8.03 -1.66 5.06 -2 2 C-1.34 2 -0.68 2 0 2 C0 1.34 0 0.68 0 0 Z " fill="#D3D1D1" transform="translate(174,195)"/>
<path d="M0 0 C1.65 0 3.3 0 5 0 C5 1.32 5 2.64 5 4 C4.34 4 3.68 4 3 4 C2.67 5.65 2.34 7.3 2 9 C1.67 9 1.34 9 1 9 C0.67 6.03 0.34 3.06 0 0 Z " fill="#F8EFEF" transform="translate(304,143)"/>
<path d="M0 0 C0.66 0.33 1.32 0.66 2 1 C1.67 4.63 1.34 8.26 1 12 C0.67 12 0.34 12 0 12 C-0.19401633 10.18818595 -0.38004375 8.37551468 -0.5625 6.5625 C-0.66691406 5.55316406 -0.77132812 4.54382813 -0.87890625 3.50390625 C-0.91886719 2.67761719 -0.95882812 1.85132813 -1 1 C-0.67 0.67 -0.34 0.34 0 0 Z " fill="#D6D5D6" transform="translate(249,197)"/>
<path d="M0 0 C0.33 0 0.66 0 1 0 C1 1.65 1 3.3 1 5 C1.99 5.33 2.98 5.66 4 6 C3.34 6 2.68 6 2 6 C2 7.32 2 8.64 2 10 C1.01 9.67 0.02 9.34 -1 9 C-0.67 6.03 -0.34 3.06 0 0 Z " fill="#CBC1C0" transform="translate(206,224)"/>
<path d="M0 0 C0.33 0 0.66 0 1 0 C1.66 3.3 2.32 6.6 3 10 C1.68 9.67 0.36 9.34 -1 9 C-0.67 6.03 -0.34 3.06 0 0 Z " fill="#CBB7B7" transform="translate(179,226)"/>
<path d="M0 0 C2 2 2 2 2.125 5.125 C2.08375 6.07375 2.0425 7.0225 2 8 C1.01 8 0.02 8 -1 8 C-1.04241723 5.66705225 -1.04092937 3.33297433 -1 1 C-0.67 0.67 -0.34 0.34 0 0 Z " fill="#A62829" transform="translate(208,221)"/>
<path d="M0 0 C0.99 0 1.98 0 3 0 C2.67 3.3 2.34 6.6 2 10 C1.67 10 1.34 10 1 10 C0.67 6.7 0.34 3.4 0 0 Z " fill="#DADADA" transform="translate(175,215)"/>
<path d="M0 0 C0 2.64 0 5.28 0 8 C-0.99 7.67 -1.98 7.34 -3 7 C-3 5.02 -3 3.04 -3 1 C-1 0 -1 0 0 0 Z " fill="#D3D3D3" transform="translate(298,200)"/>
<path d="M0 0 C0.33 0.99 0.66 1.98 1 3 C1.99 3.33 2.98 3.66 4 4 C4 4.99 4 5.98 4 7 C3.34 7 2.68 7 2 7 C1.67 8.32 1.34 9.64 1 11 C0.67 7.37 0.34 3.74 0 0 Z " fill="#E1E0DF" transform="translate(197,187)"/>
<path d="M0 0 C2 2 2 2 2.125 4.625 C2.08375 5.40875 2.0425 6.1925 2 7 C1.34 7 0.68 7 0 7 C-0.33 8.32 -0.66 9.64 -1 11 C-1.66 10.67 -2.32 10.34 -3 10 C-2.690625 9.278125 -2.38125 8.55625 -2.0625 7.8125 C-1.07439461 5.19692691 -0.4712246 2.74881018 0 0 Z " fill="#F6EEEE" transform="translate(351,133)"/>
<path d="M0 0 C2.475 0.495 2.475 0.495 5 1 C5 1.99 5 2.98 5 4 C4.34 4 3.68 4 3 4 C2.67 4.99 2.34 5.98 2 7 C1.34 4.69 0.68 2.38 0 0 Z " fill="#D7D6D6" transform="translate(147,219)"/>
<path d="M0 0 C1.485 0.99 1.485 0.99 3 2 C3.6875 5.625 3.6875 5.625 4 9 C3.01 8.67 2.02 8.34 1 8 C0.67 5.36 0.34 2.72 0 0 Z " fill="#CBBFBF" transform="translate(197,182)"/>
<path d="M0 0 C-2.6855594 2.6855594 -5.37621328 3.06049974 -9 4 C-6.73455663 -1.01633889 -5.27613404 -1.24961069 0 0 Z " fill="#B03333" transform="translate(287,138)"/>
<path d="M0 0 C1.67542976 0.28604898 3.34385343 0.61781233 5 1 C5 1.99 5 2.98 5 4 C4.34 3.67 3.68 3.34 3 3 C2.34 3.66 1.68 4.32 1 5 C0.34 3.68 -0.32 2.36 -1 1 C-0.67 0.67 -0.34 0.34 0 0 Z " fill="#D48C8D" transform="translate(400,112)"/>
<path d="M0 0 C1.485 0.99 1.485 0.99 3 2 C2.39816251 4.02045442 1.72693904 6.02111039 1 8 C0.01 8.495 0.01 8.495 -1 9 C-0.67 6.03 -0.34 3.06 0 0 Z " fill="#BD6060" transform="translate(367,260)"/>
<path d="M0 0 C1.32 0 2.64 0 4 0 C3.625 2.9375 3.625 2.9375 3 6 C2.01 6.495 2.01 6.495 1 7 C0.67 4.69 0.34 2.38 0 0 Z " fill="#AD2728" transform="translate(155,187)"/>
<path d="M0 0 C1.9451 2.91765 2.45276317 4.62537285 3 8 C1.68 7.67 0.36 7.34 -1 7 C-0.67 4.69 -0.34 2.38 0 0 Z " fill="#CFC3C3" transform="translate(189,231)"/>
<path d="M0 0 C1.33332095 2.6666419 0.67102033 4.16680303 0 7 C-0.99 7 -1.98 7 -3 7 C-3 7.66 -3 8.32 -3 9 C-3.66 9 -4.32 9 -5 9 C-3.50163895 5.88801935 -1.80066242 2.9465385 0 0 Z " fill="#CE8989" transform="translate(259,75)"/>
<path d="M0 0 C0.33 0 0.66 0 1 0 C1.33 3.3 1.66 6.6 2 10 C1.34 10 0.68 10 0 10 C-0.95024979 6.30458414 -0.95024979 3.69541586 0 0 Z " fill="#CAB6B6" transform="translate(175,199)"/>
<path d="M0 0 C0.99 0 1.98 0 3 0 C3 1.98 3 3.96 3 6 C2.01 6.495 2.01 6.495 1 7 C0.67 4.69 0.34 2.38 0 0 Z " fill="#C9C1C1" transform="translate(199,194)"/>
<path d="M0 0 C0.99 0.33 1.98 0.66 3 1 C1.71034824 2.37562854 0.37310707 3.70766393 -1 5 C-1.66 5 -2.32 5 -3 5 C-2.625 3.0625 -2.625 3.0625 -2 1 C-1.34 0.67 -0.68 0.34 0 0 Z " fill="#C7C3C3" transform="translate(347,174)"/>
</svg>
