<?xml version="1.0" encoding="UTF-8"?>
<svg version="1.1" xmlns="http://www.w3.org/2000/svg" width="500" height="353">
<path d="M0 0 C-0.61016949 5.49152542 -0.61016949 5.49152542 -2.4375 7.875 C-4 9 -4 9 -6 9 C-6.25265625 9.67675781 -6.5053125 10.35351562 -6.765625 11.05078125 C-8.22725462 14.54296596 -9.95833246 17.85739967 -11.75 21.1875 C-12.10562012 21.85241455 -12.46124023 22.5173291 -12.82763672 23.20239258 C-14.83382096 26.92578037 -16.91229177 30.58160511 -19.125 34.1875 C-23.58463197 41.49936272 -27.28715266 49.12789619 -30.5 57.0625 C-33.3881554 64.13160417 -37.05135522 70.6415249 -40.87890625 77.23828125 C-44.3566967 83.24784871 -47.69144506 89.26558646 -50.75 95.5 C-57.43105248 109.10017128 -64.78773223 122.38031472 -72.4921875 135.42578125 C-84.23653106 155.38979203 -84.23653106 155.38979203 -92.0625 177.0625 C-92.371875 178.031875 -92.68125 179.00125 -93 180 C-93.99 180.33 -94.98 180.66 -96 181 C-99.75769108 175.36346338 -100.61490107 169.10592097 -101.8125 162.5625 C-103.50405024 153.70759516 -105.92937578 145.47032736 -109 137 C-109.4846867 135.54349198 -109.96461436 134.08538213 -110.4375 132.625 C-111.40509294 129.71109943 -112.41698949 126.81476845 -113.4453125 123.921875 C-113.84278687 122.80304932 -113.84278687 122.80304932 -114.24829102 121.66162109 C-114.77791955 120.17421453 -115.30955133 118.68751924 -115.84350586 117.20166016 C-117.39910212 112.83753028 -118.77441643 108.4683956 -120 104 C-120.45375 104.495 -120.9075 104.99 -121.375 105.5 C-123 107 -123 107 -125 107 C-125.21011719 107.54398437 -125.42023438 108.08796875 -125.63671875 108.6484375 C-127.50429858 111.86987893 -130.07847454 114.15274294 -132.8125 116.625 C-133.3885498 117.15134033 -133.96459961 117.67768066 -134.55810547 118.2199707 C-139.45125439 122.62991951 -144.58000955 126.65713831 -149.84765625 130.60546875 C-153.89229983 133.67779404 -157.77483411 136.91564978 -161.66015625 140.1875 C-164 142 -164 142 -166.18359375 143 C-168.53433949 144.294174 -168.84824859 145.60924327 -170 148 C-172.09375 150.140625 -172.09375 150.140625 -174.5 152.25 C-175.2940625 152.95640625 -176.088125 153.6628125 -176.90625 154.390625 C-179 156 -179 156 -181 156 C-181 156.66 -181 157.32 -181 158 C-182.80078125 159.6640625 -182.80078125 159.6640625 -185.3125 161.625 C-186.22 162.33527344 -187.1275 163.04554688 -188.0625 163.77734375 C-190.94805287 165.96069426 -193.87054407 168.08096362 -196.8125 170.1875 C-202.46453363 174.26776023 -206.94070728 178.81494286 -211.375 184.15625 C-215.1488149 188.43807844 -219.28434312 192.19025771 -223.6875 195.8125 C-224.64011719 196.60269531 -225.59273438 197.39289063 -226.57421875 198.20703125 C-229 200 -229 200 -231 200 C-231.33 200.99 -231.66 201.98 -232 203 C-234.25745471 204.82423559 -236.5075519 206.51828544 -238.875 208.1875 C-239.8966626 208.92105713 -239.8966626 208.92105713 -240.93896484 209.66943359 C-242.31732991 210.65888775 -243.69768901 211.6455703 -245.08007812 212.62939453 C-247.61268413 214.43738666 -250.11794674 216.28179664 -252.625 218.125 C-260.77832297 224.04370853 -269.0900769 229.73429082 -277.4375 235.375 C-278.36433594 236.00148437 -279.29117188 236.62796875 -280.24609375 237.2734375 C-283.08614328 239.05400756 -285.99632111 240.51640152 -289 242 C-290.31124544 242.80217368 -291.60417963 243.63520938 -292.875 244.5 C-293.63167969 245.01175781 -294.38835937 245.52351562 -295.16796875 246.05078125 C-297.42515183 247.60434588 -299.6766888 249.16525452 -301.92578125 250.73046875 C-302.62654785 251.21644531 -303.32731445 251.70242188 -304.04931641 252.203125 C-305.44873766 253.17463461 -306.84565717 254.14976028 -308.23974609 255.12890625 C-318.42907154 262.20670111 -318.42907154 262.20670111 -322.375 261.6875 C-323.179375 261.3471875 -323.179375 261.3471875 -324 261 C-320.99589723 257.82423422 -317.79390002 255.3023425 -314.25 252.75 C-309.66949013 249.36343546 -305.62287523 245.83354572 -301.68359375 241.73046875 C-299.60414548 239.593124 -297.4362556 237.71970984 -295 236 C-294.34 236 -293.68 236 -293 236 C-292.67 235.01 -292.34 234.02 -292 233 C-290.25 231.640625 -290.25 231.640625 -288 230.25 C-284.65072894 228.09193699 -281.37637565 225.89033465 -278.1875 223.5 C-277.12595703 222.71109375 -277.12595703 222.71109375 -276.04296875 221.90625 C-270.00710662 216.27431746 -268.57384102 209.79099028 -266.5625 202 C-262.97084073 188.5535401 -262.97084073 188.5535401 -260.4375 182.1875 C-257.34653461 174.03673647 -255.84103448 165.47577424 -254.14233398 156.94604492 C-252.8763781 150.67177847 -251.37020797 144.93868775 -249 139 C-248.4975794 137.01061744 -248.03664857 135.01012808 -247.625 133 C-246.55785996 128.17586693 -245.2661832 123.51464985 -243.75 118.8125 C-239.41297128 105.33241149 -235.98855749 91.57491258 -232.39225769 77.88314819 C-231.66937461 75.1336305 -230.94338972 72.38493577 -230.2171936 69.6362915 C-229.69619391 67.6580115 -229.18039271 65.67842408 -228.66479492 63.69873047 C-228.34615479 62.49104004 -228.02751465 61.28334961 -227.69921875 60.0390625 C-227.41908936 58.96865723 -227.13895996 57.89825195 -226.8503418 56.79541016 C-226.10151026 54.33370442 -225.20210284 52.26207894 -224 50 C-223.5845535 48.59466244 -223.20799564 47.17712415 -222.875 45.75 C-222.58625 44.5125 -222.2975 43.275 -222 42 C-221.35675781 41.87625 -220.71351563 41.7525 -220.05078125 41.625 C-219.37402344 41.41875 -218.69726562 41.2125 -218 41 C-217.5978125 40.01 -217.5978125 40.01 -217.1875 39 C-216 37 -216 37 -212.6875 36 C-209 36 -209 36 -206.3125 37.625 C-204 40 -204 40 -202.125 42.75 C-201.42375 43.4925 -200.7225 44.235 -200 45 C-198.329375 44.8453125 -198.329375 44.8453125 -196.625 44.6875 C-193 45 -193 45 -191.53125 46.5390625 C-189.8316658 49.28672363 -188.41345249 52.09327652 -187 55 C-186.49315674 56.00595215 -186.49315674 56.00595215 -185.97607422 57.03222656 C-181.13006249 66.65572489 -176.98852353 76.37736518 -173.3984375 86.53417969 C-171.42627953 92.0510813 -169.10650636 97.01076251 -166 102 C-163.41270081 99.67671093 -162.00575432 97.33969508 -160.4375 94.25 C-157.9459538 89.5567657 -155.17999025 85.19111219 -152.1875 80.8125 C-144.23964036 69.08869726 -137.71312869 56.80749078 -131.82421875 43.9375 C-130.293904 40.59821864 -128.66884616 37.31534441 -127.01538086 34.03564453 C-125.26654028 30.52955346 -123.60309158 26.98370174 -121.9375 23.4375 C-121.59912109 22.72142578 -121.26074219 22.00535156 -120.91210938 21.26757812 C-118.84859886 16.88112154 -116.88404247 12.4665306 -115 8 C-114.01 8 -113.02 8 -112 8 C-110.60546875 9.6171875 -110.60546875 9.6171875 -109.1875 11.875 C-108.66542969 12.70257813 -108.14335937 13.53015625 -107.60546875 14.3828125 C-107.07566406 15.24648438 -106.54585937 16.11015625 -106 17 C-105.25169922 18.17175781 -105.25169922 18.17175781 -104.48828125 19.3671875 C-98.70084587 28.63316016 -94.29141502 38.43074376 -91 48.83984375 C-90.07843602 51.75212992 -89.09302788 54.63701378 -88.09472656 57.52368164 C-85.55313512 64.92469773 -83.58869152 72.34069862 -82 80 C-81.443125 79.21496094 -80.88625 78.42992188 -80.3125 77.62109375 C-79.549375 76.57050781 -78.78625 75.51992187 -78 74.4375 C-76.88625 72.88869141 -76.88625 72.88869141 -75.75 71.30859375 C-73.21243187 68.05701648 -70.25587754 65.50155805 -67.11865234 62.84106445 C-63.50478271 59.70068754 -60.17530187 56.27963577 -56.8125 52.875 C-56.12736328 52.18535156 -55.44222656 51.49570313 -54.73632812 50.78515625 C-53.41322438 49.45313842 -52.09146205 48.1197864 -50.77124023 46.78491211 C-49.26055737 45.26256857 -47.73704976 43.7529693 -46.2109375 42.24609375 C-43.74215125 39.73805118 -41.54156257 37.08969088 -39.33203125 34.35546875 C-38.89246094 33.90816406 -38.45289063 33.46085937 -38 33 C-37.34 33 -36.68 33 -36 33 C-35.74863281 32.41089844 -35.49726563 31.82179688 -35.23828125 31.21484375 C-33.84544599 28.72355798 -32.3791428 27.37699586 -30.1875 25.5625 C-26.38935836 22.34605573 -22.87171957 18.96040453 -19.43359375 15.359375 C-17.99081867 13.87140455 -16.49846793 12.43186936 -15 11 C-14.34 11 -13.68 11 -13 11 C-12.73960937 10.41734375 -12.47921875 9.8346875 -12.2109375 9.234375 C-10.92056825 6.85343561 -9.51586504 5.1821503 -7.625 3.25 C-7.03976562 2.63640625 -6.45453125 2.0228125 -5.8515625 1.390625 C-4 0 -4 0 0 0 Z M-211 115 C-211.09498779 115.55236328 -211.18997559 116.10472656 -211.2878418 116.67382812 C-213.05328763 126.79082808 -214.9747633 136.67043769 -218.20043945 146.43017578 C-222.34114896 156.72683524 -222.34114896 156.72683524 -222 167 C-221.113125 166.278125 -220.22625 165.55625 -219.3125 164.8125 C-218.81363281 164.40644531 -218.31476563 164.00039062 -217.80078125 163.58203125 C-215.42332466 161.49337633 -213.22755055 159.24749876 -211 157 C-210.14019531 156.16339844 -209.28039062 155.32679688 -208.39453125 154.46484375 C-207.54246094 153.63082031 -206.69039062 152.79679687 -205.8125 151.9375 C-204.95269531 151.10089844 -204.09289062 150.26429688 -203.20703125 149.40234375 C-200.43082061 146.54975942 -200.43082061 146.54975942 -199 143 C-199.71685396 140.16530363 -200.51664334 137.64678662 -201.5625 134.9375 C-201.8404541 134.1854126 -202.1184082 133.4333252 -202.40478516 132.65844727 C-204.66078294 126.64695233 -207.18302488 120.77105965 -210 115 C-210.33 115 -210.66 115 -211 115 Z " fill="#B02A2A" transform="translate(372,16)"/>
<path d="M0 0 C6.2981688 8.55177897 10.29080367 18.83621685 14.31640625 28.59765625 C16.44900939 33.72613399 18.67481394 38.80568724 20.94384766 43.875 C27.31132839 58.12289124 33.00607935 72.52098888 38.2109375 87.23046875 C42.9418014 100.58820211 48.04458793 113.58144921 54.13183594 126.37963867 C54.68726074 127.57423706 54.68726074 127.57423706 55.25390625 128.79296875 C55.59623291 129.51766357 55.93855957 130.2423584 56.29125977 130.98901367 C57 133 57 133 56.625 136.3125 C53.48454509 141.50632927 48.67029297 143.43162109 43 145 C41.700625 145.2165625 41.700625 145.2165625 40.375 145.4375 C37.93965443 145.8432511 37.93965443 145.8432511 36.125 147.4375 C33.29765376 149.51643106 30.35684245 150.04090216 27 151 C26.319375 151.5775 25.63875 152.155 24.9375 152.75 C23 154 23 154 19.9375 153.4375 C16.88864259 151.94550595 15.64588125 150.92601111 14 148 C14 147.34 14 146.68 14 146 C13.278125 145.938125 12.55625 145.87625 11.8125 145.8125 C7.38121961 144.53235233 5.11196608 141.94407178 2.83789062 137.96826172 C-0.58223029 131.16335172 -3.34147459 124.19482521 -6 117.0625 C-9.05657234 108.89094489 -12.32759562 100.91352939 -16 93 C-20.83537473 81.81389093 -25.32314519 70.46373484 -29.625 59.0625 C-31.77169019 53.45230008 -34.26569251 48.18254364 -37.13671875 42.9140625 C-37.50410156 42.22054687 -37.87148437 41.52703125 -38.25 40.8125 C-38.58515625 40.20019531 -38.9203125 39.58789062 -39.265625 38.95703125 C-40.20801862 36.44565251 -40.26746305 34.6710946 -40 32 C-38.58227539 30.27416992 -38.58227539 30.27416992 -36.59765625 28.73046875 C-35.87610352 28.15546631 -35.15455078 27.58046387 -34.41113281 26.98803711 C-33.63608398 26.39385986 -32.86103516 25.79968262 -32.0625 25.1875 C-30.49514932 23.9438977 -28.92873464 22.69911478 -27.36328125 21.453125 C-26.60740723 20.85822266 -25.8515332 20.26332031 -25.07275391 19.65039062 C-20.24222983 15.80417828 -15.67692723 11.67692723 -11.3125 7.3125 C-4 0 -4 0 0 0 Z " fill="#AE2626" transform="translate(221,151)"/>
<path d="M0 0 C0.5671875 0.22429687 1.134375 0.44859375 1.71875 0.6796875 C1.38875 1.9996875 1.05875 3.3196875 0.71875 4.6796875 C0.05875 4.6796875 -0.60125 4.6796875 -1.28125 4.6796875 C-1.29542969 5.26492187 -1.30960938 5.85015625 -1.32421875 6.453125 C-1.6705144 12.68644678 -2.92569379 18.24119336 -4.71875 24.1796875 C-6.5803252 30.40337391 -7.68665824 36.2678893 -8.15625 42.7421875 C-8.7765199 50.71816824 -10.49686251 58.16979817 -12.65625 65.8671875 C-13.09493408 67.44415405 -13.09493408 67.44415405 -13.54248047 69.05297852 C-15.26941077 74.9793813 -17.34632219 80.25067495 -20.28125 85.6796875 C-20.95218897 87.01087611 -21.61993782 88.34369034 -22.28125 89.6796875 C-23.60125 89.6796875 -24.92125 89.6796875 -26.28125 89.6796875 C-26.508125 90.3190625 -26.735 90.9584375 -26.96875 91.6171875 C-27.401875 92.2978125 -27.835 92.9784375 -28.28125 93.6796875 C-29.94044896 94.04839838 -31.60899271 94.37564072 -33.28125 94.6796875 C-34.27125 95.3603125 -35.26125 96.0409375 -36.28125 96.7421875 C-39.45223197 98.79011335 -40.63094207 99.07431538 -44.28125 98.6796875 C-47.20219306 98.52157362 -47.20219306 98.52157362 -49.53125 99.4296875 C-53.65879874 99.8049192 -55.77252639 97.80468912 -59.28125 95.6796875 C-59.09014648 94.98109619 -58.89904297 94.28250488 -58.70214844 93.56274414 C-54.24795707 77.40175638 -54.24795707 77.40175638 -50.28125 61.1171875 C-48.61219188 53.79657769 -46.69586424 46.54776947 -44.71875 39.3046875 C-44.42548828 38.20310303 -44.13222656 37.10151855 -43.83007812 35.96655273 C-43.54455078 34.93602783 -43.25902344 33.90550293 -42.96484375 32.84375 C-42.71275146 31.92029785 -42.46065918 30.9968457 -42.20092773 30.04541016 C-40.31517349 25.19461147 -36.09997104 23.19151887 -31.84375 20.5546875 C-25.04892145 16.27129818 -18.66864033 11.54963151 -12.28125 6.6796875 C-10.458848 5.29023183 -8.62616963 3.91410196 -6.78125 2.5546875 C-6.0078125 1.97460938 -5.234375 1.39453125 -4.4375 0.796875 C-2.28125 -0.3203125 -2.28125 -0.3203125 0 0 Z " fill="#B52828" transform="translate(139.28125,222.3203125)"/>
<path d="M0 0 C12.47524956 -0.29087369 24.60857456 0.56479871 37 2 C37 3.32 37 4.64 37 6 C34.8046875 8.1484375 34.8046875 8.1484375 31.875 10.375 C28.54013464 12.97164548 25.35397474 15.50056518 22.4375 18.5625 C21.633125 19.366875 20.82875 20.17125 20 21 C19.34 21 18.68 21 18 21 C18 21.66 18 22.32 18 23 C16.671875 24.33984375 16.671875 24.33984375 14.75 25.9375 C12.06723221 28.20679462 9.43344885 30.50670994 6.8671875 32.90625 C6.0632959 33.65660522 6.0632959 33.65660522 5.24316406 34.42211914 C4.17155617 35.4256602 3.1031417 36.4326231 2.03808594 37.44311523 C-1.77930131 41 -1.77930131 41 -4 41 C-4.33 41.99 -4.66 42.98 -5 44 C-6.53125 45.5078125 -6.53125 45.5078125 -8.5 47.125 C-11.65106235 49.79214921 -14.60589411 52.55564922 -17.5 55.5 C-28.33134583 66.44378194 -28.33134583 66.44378194 -33 68 C-32.44658132 62.75066103 -30.67170318 58.89959472 -28.25 54.3125 C-27.52445153 52.90316124 -26.80049924 51.49299963 -26.078125 50.08203125 C-25.72427734 49.39318848 -25.37042969 48.7043457 -25.00585938 47.99462891 C-22.85627521 43.73198263 -20.92473141 39.36765974 -19 35 C-18.34 35 -17.68 35 -17 35 C-16.87625 34.42765625 -16.7525 33.8553125 -16.625 33.265625 C-14.41212841 25.2439655 -9.25461768 17.79634967 -5.12304688 10.62207031 C-3.13957661 7.15185081 -1.36471914 3.77304704 0 0 Z " fill="#B23131" transform="translate(378,20)"/>
<path d="M0 0 C2.99782886 1.49891443 3.14034067 3.63870501 4.26171875 6.75 C6.82804037 13.64364168 9.76772648 20.30709941 12.8125 27 C18.89400137 40.54275324 24.25587554 54.23193927 29.20703125 68.22265625 C33.940681 81.58242724 39.04333875 94.57882286 45.13183594 107.37963867 C45.68726074 108.57423706 45.68726074 108.57423706 46.25390625 109.79296875 C46.59623291 110.51766357 46.93855957 111.2423584 47.29125977 111.98901367 C48 114 48 114 47.625 117.3125 C44.48454509 122.50632927 39.67029297 124.43162109 34 126 C32.700625 126.2165625 32.700625 126.2165625 31.375 126.4375 C28.93965443 126.8432511 28.93965443 126.8432511 27.125 128.4375 C24.29765376 130.51643106 21.35684245 131.04090216 18 132 C17.319375 132.5775 16.63875 133.155 15.9375 133.75 C14 135 14 135 10.9375 134.4375 C7.88864259 132.94550595 6.64588125 131.92601111 5 129 C5 128.34 5 127.68 5 127 C4.278125 126.938125 3.55625 126.87625 2.8125 126.8125 C-1.61878039 125.53235233 -3.88803392 122.94407178 -6.16210938 118.96826172 C-9.58223029 112.16335172 -12.34147459 105.19482521 -15 98.0625 C-18.05657234 89.89094489 -21.32759562 81.91352939 -25 74 C-29.83537473 62.81389093 -34.32314519 51.46373484 -38.625 40.0625 C-40.77169019 34.45230008 -43.26569251 29.18254364 -46.13671875 23.9140625 C-49.9536723 16.70872562 -49.9536723 16.70872562 -49 13 C-46.5 11.1875 -46.5 11.1875 -44 10 C-43.84144531 10.59425781 -43.68289062 11.18851563 -43.51953125 11.80078125 C-41.85368925 17.71866196 -39.68334042 23.12707495 -36.98828125 28.65234375 C-36 31 -36 31 -36 34 C-35.34 34 -34.68 34 -34 34 C-33.48953125 35.4540625 -33.48953125 35.4540625 -32.96875 36.9375 C-30.42809738 44.02077519 -27.70948331 50.8748008 -24.25 57.5625 C-16.23016248 73.13121793 -9.67870172 89.41703891 -3.39892578 105.75170898 C-1.38364977 110.91244392 0.48676265 115.67928471 4 120 C6.33124929 121.00484883 8.66443537 122.00522247 11 123 C12.4375 125.6875 12.4375 125.6875 13 128 C15.97 128 18.94 128 22 128 C22.33 126.35 22.66 124.7 23 123 C24.093125 123.226875 25.18625 123.45375 26.3125 123.6875 C29.85789953 124.38115685 29.85789953 124.38115685 31.8125 122.75 C32.88316567 121.17217691 33.94230284 119.58654575 35 118 C36.485 118.99 36.485 118.99 38 120 C40.41142001 119.77392937 41.79073292 119.13710602 43.8125 117.8125 C45.28445537 115.97381306 45.28445537 115.97381306 44.7578125 113.2421875 C43.95740708 109.81777254 42.76761243 107.38170237 41.0625 104.3125 C37.51449238 97.57557597 34.85603977 90.58375367 32.25 83.4375 C31.82775146 82.28032471 31.40550293 81.12314941 30.97045898 79.9309082 C30.091268 77.51415991 29.21344443 75.09691377 28.33691406 72.67919922 C21.70847158 54.4376674 14.67053895 36.52247604 6.62890625 18.86328125 C0 4.21356614 0 4.21356614 0 0 Z " fill="#C3C0C0" transform="translate(230,170)"/>
<path d="M0 0 C0.99 0.33 1.98 0.66 3 1 C2.0409375 1.34611328 2.0409375 1.34611328 1.0625 1.69921875 C-1.19340695 2.81322071 -1.19340695 2.81322071 -1.6875 5.14453125 C-1.790625 6.02496094 -1.89375 6.90539063 -2 7.8125 C-2.62793133 12.03329058 -3.50655965 15.93649637 -4.8125 20 C-6.5168331 25.34024372 -8.02476469 30.70236293 -9.4375 36.125 C-9.64955078 36.93783447 -9.86160156 37.75066895 -10.08007812 38.58813477 C-10.91784825 41.80981648 -11.75089979 45.03269572 -12.58105469 48.25634766 C-15.19712197 58.4031766 -17.97741356 68.49219958 -20.875 78.5625 C-28.55342334 105.23011382 -28.55342334 105.23011382 -34.98046875 132.21875 C-36.02967317 136.11005223 -37.45141205 139.66291143 -38.9855957 143.38085938 C-40.64444181 147.66391619 -41.80865412 152.06845516 -43 156.5 C-48.16804599 175.72399524 -48.16804599 175.72399524 -53 180 C-53.66 179.67 -54.32 179.34 -55 179 C-54.7054895 178.09459473 -54.7054895 178.09459473 -54.4050293 177.17089844 C-49.55512763 162.49327167 -49.55512763 162.49327167 -45.703125 147.53515625 C-45 145 -45 145 -43.609375 142.0546875 C-41.09062772 136.36130127 -40.21124154 130.13447905 -39 124.0625 C-37.47268327 116.42989376 -35.89194164 109.2298541 -33 102 C-32.4975794 100.01061744 -32.03664857 98.01012808 -31.625 96 C-30.55785996 91.17586693 -29.2661832 86.51464985 -27.75 81.8125 C-23.41297128 68.33241149 -19.98855749 54.57491258 -16.39225769 40.88314819 C-15.66937461 38.1336305 -14.94338972 35.38493577 -14.2171936 32.6362915 C-13.69619391 30.6580115 -13.18039271 28.67842408 -12.66479492 26.69873047 C-12.34615479 25.49104004 -12.02751465 24.28334961 -11.69921875 23.0390625 C-11.27902466 21.43345459 -11.27902466 21.43345459 -10.8503418 19.79541016 C-10.10151026 17.33370442 -9.20210284 15.26207894 -8 13 C-7.5845535 11.59466244 -7.20799564 10.17712415 -6.875 8.75 C-6.58625 7.5125 -6.2975 6.275 -6 5 C-5.36578125 4.87753906 -4.7315625 4.75507812 -4.078125 4.62890625 C-1.80283433 4.19303909 -1.80283433 4.19303909 -0.75 1.9375 C-0.5025 1.298125 -0.255 0.65875 0 0 Z " fill="#C4BFBF" transform="translate(156,53)"/>
<path d="M0 0 C0.99 0.33 1.98 0.66 3 1 C2.67 2.32 2.34 3.64 2 5 C1.34 5 0.68 5 0 5 C-0.01417969 5.58523437 -0.02835938 6.17046875 -0.04296875 6.7734375 C-0.3892644 13.00675928 -1.64444379 18.56150586 -3.4375 24.5 C-5.2990752 30.72368641 -6.40540824 36.5882018 -6.875 43.0625 C-7.4952699 51.03848074 -9.21561251 58.49011067 -11.375 66.1875 C-11.81368408 67.76446655 -11.81368408 67.76446655 -12.26123047 69.37329102 C-13.98816077 75.2996938 -16.06507219 80.57098745 -19 86 C-19.67093897 87.33118861 -20.33868782 88.66400284 -21 90 C-22.32 90 -23.64 90 -25 90 C-25.226875 90.639375 -25.45375 91.27875 -25.6875 91.9375 C-26.120625 92.618125 -26.55375 93.29875 -27 94 C-28.65919896 94.36871088 -30.32774271 94.69595322 -32 95 C-32.99 95.680625 -33.98 96.36125 -35 97.0625 C-38.17098197 99.11042585 -39.34969207 99.39462788 -43 99 C-45.92094306 98.84188612 -45.92094306 98.84188612 -48.25 99.75 C-52.37754874 100.1252317 -54.49127639 98.12500162 -58 96 C-57.80889648 95.30140869 -57.61779297 94.60281738 -57.42089844 93.88305664 C-52.96670707 77.72206888 -52.96670707 77.72206888 -49 61.4375 C-47.33094188 54.11689019 -45.41461424 46.86808197 -43.4375 39.625 C-43.14423828 38.52341553 -42.85097656 37.42183105 -42.54882812 36.28686523 C-42.26330078 35.25634033 -41.97777344 34.22581543 -41.68359375 33.1640625 C-41.43150146 32.24061035 -41.17940918 31.3171582 -40.91967773 30.36572266 C-39.09669264 25.6763875 -35.17586151 23.5765954 -31 21 C-30.34 21 -29.68 21 -29 21 C-29.33 21.99 -29.66 22.98 -30 24 C-30.65129883 24.31251709 -31.30259766 24.62503418 -31.97363281 24.94702148 C-34.11317454 25.80948907 -34.11317454 25.80948907 -34.87792969 27.72290039 C-35.05743164 28.42406982 -35.23693359 29.12523926 -35.421875 29.84765625 C-35.7470813 31.07295044 -35.7470813 31.07295044 -36.07885742 32.32299805 C-36.30033447 33.22703369 -36.52181152 34.13106934 -36.75 35.0625 C-36.99532471 36.00971924 -37.24064941 36.95693848 -37.4934082 37.93286133 C-38.35172104 41.28327211 -39.17877177 44.64030712 -40 48 C-40.16216003 48.66165161 -40.32432007 49.32330322 -40.49139404 50.00500488 C-42.07552293 56.47030527 -43.65282177 62.93721175 -45.19628906 69.41235352 C-47.00223261 76.97953665 -48.88671417 84.5121116 -51 92 C-49.66666667 92.33333333 -48.33333333 92.66666667 -47 93 C-45.66666667 93.33333333 -44.33333333 93.66666667 -43 94 C-41.68 92.35 -40.36 90.7 -39 89 C-38.34 90.32 -37.68 91.64 -37 93 C-35.07690578 92.96044102 -35.07690578 92.96044102 -33 92 C-31.21620585 89.01647106 -31.21620585 89.01647106 -30 86 C-27.36 86.66 -24.72 87.32 -22 88 C-21.7371521 87.01990967 -21.7371521 87.01990967 -21.46899414 86.02001953 C-19.27606673 77.90396434 -16.91641938 69.84241075 -14.51757812 61.78515625 C-12.16109563 53.78646405 -10.17877283 45.89605008 -9.0625 37.625 C-8.32497775 32.66816443 -7.25700908 27.98583735 -5.859375 23.1796875 C-4.50488427 18.16807181 -3.4422212 13.09283435 -2.35791016 8.0168457 C-1.10150776 2.20301553 -1.10150776 2.20301553 0 0 Z " fill="#C3BEBE" transform="translate(138,222)"/>
<path d="M0 0 C1.32 0 2.64 0 4 0 C3.38983051 5.49152542 3.38983051 5.49152542 1.5625 7.875 C0 9 0 9 -2 9 C-2.37898438 10.01513672 -2.37898438 10.01513672 -2.765625 11.05078125 C-4.22725462 14.54296596 -5.95833246 17.85739967 -7.75 21.1875 C-8.10562012 21.85241455 -8.46124023 22.5173291 -8.82763672 23.20239258 C-10.83382096 26.92578037 -12.91229177 30.58160511 -15.125 34.1875 C-19.58463197 41.49936272 -23.28715266 49.12789619 -26.5 57.0625 C-29.3881554 64.13160417 -33.05135522 70.6415249 -36.87890625 77.23828125 C-40.3566967 83.24784871 -43.69144506 89.26558646 -46.75 95.5 C-53.43105248 109.10017128 -60.78773223 122.38031472 -68.4921875 135.42578125 C-80.23653106 155.38979203 -80.23653106 155.38979203 -88.0625 177.0625 C-88.371875 178.031875 -88.68125 179.00125 -89 180 C-89.99 180.33 -90.98 180.66 -92 181 C-94.12508244 177.81237635 -94.5020163 175.73487777 -95 172 C-93.68 172.99 -92.36 173.98 -91 175 C-90.57332031 173.89527344 -90.14664062 172.79054687 -89.70703125 171.65234375 C-84.70204607 159.06504632 -78.42271171 147.51655614 -71.62402344 135.81933594 C-69.12272127 131.47702724 -66.71459308 127.08524426 -64.3125 122.6875 C-61.6729763 117.86341121 -59.03021755 113.04206352 -56.33984375 108.24609375 C-52.47607776 101.35496536 -48.66666053 94.46975872 -45.1875 87.375 C-43.45168483 83.8387812 -41.72437065 80.41791555 -39.5625 77.125 C-33.46539063 67.72780504 -29.01004658 57.33608269 -25.12890625 46.87109375 C-23.47108523 42.65483614 -21.34115021 38.86956952 -19 35 C-17.93097081 33.22958595 -16.86245614 31.45886253 -15.79418945 29.68798828 C-15.01513176 28.39666233 -14.23502165 27.10597071 -13.45385742 25.81591797 C-10.25576577 20.50469411 -7.29719755 15.09680103 -4.41015625 9.609375 C-3 7 -3 7 -1 4 C-1 3.01 -1 2.02 -1 1 C-0.67 0.67 -0.34 0.34 0 0 Z " fill="#FBF3F2" transform="translate(368,16)"/>
<path d="M0 0 C0.99 0.33 1.98 0.66 3 1 C2.67 2.32 2.34 3.64 2 5 C1.34 5 0.68 5 0 5 C-0.01417969 5.58523437 -0.02835938 6.17046875 -0.04296875 6.7734375 C-0.3892644 13.00675928 -1.64444379 18.56150586 -3.4375 24.5 C-5.2990752 30.72368641 -6.40540824 36.5882018 -6.875 43.0625 C-7.4952699 51.03848074 -9.21561251 58.49011067 -11.375 66.1875 C-11.81368408 67.76446655 -11.81368408 67.76446655 -12.26123047 69.37329102 C-13.98816077 75.2996938 -16.06507219 80.57098745 -19 86 C-19.67093897 87.33118861 -20.33868782 88.66400284 -21 90 C-22.32 90 -23.64 90 -25 90 C-25.226875 90.639375 -25.45375 91.27875 -25.6875 91.9375 C-26.120625 92.618125 -26.55375 93.29875 -27 94 C-28.65919896 94.36871088 -30.32774271 94.69595322 -32 95 C-32.99 95.680625 -33.98 96.36125 -35 97.0625 C-38.17098197 99.11042585 -39.34969207 99.39462788 -43 99 C-45.92094306 98.84188612 -45.92094306 98.84188612 -48.25 99.75 C-52.41663592 100.12878508 -54.53230051 98.24380555 -58 96 C-57.34 94.68 -56.68 93.36 -56 92 C-56 93.32 -56 94.64 -56 96 C-55.4225 96.144375 -54.845 96.28875 -54.25 96.4375 C-52.16666667 96.95833333 -50.08333333 97.47916667 -48 98 C-47.34 97.01 -46.68 96.02 -46 95 C-44.33333333 94 -42.66666667 93 -41 92 C-40.34 91.01 -39.68 90.02 -39 89 C-38.34 90.32 -37.68 91.64 -37 93 C-35.07690578 92.96044102 -35.07690578 92.96044102 -33 92 C-31.21620585 89.01647106 -31.21620585 89.01647106 -30 86 C-27.36 86.66 -24.72 87.32 -22 88 C-21.7371521 87.01990967 -21.7371521 87.01990967 -21.46899414 86.02001953 C-19.27606673 77.90396434 -16.91641938 69.84241075 -14.51757812 61.78515625 C-12.16109563 53.78646405 -10.17877283 45.89605008 -9.0625 37.625 C-8.32497775 32.66816443 -7.25700908 27.98583735 -5.859375 23.1796875 C-4.50488427 18.16807181 -3.4422212 13.09283435 -2.35791016 8.0168457 C-1.10150776 2.20301553 -1.10150776 2.20301553 0 0 Z " fill="#FBF2F2" transform="translate(138,222)"/>
<path d="M0 0 C3.39341457 1.02695441 4.05031735 2.09246916 5.78125 5.2734375 C6.36960966 6.63405062 6.94174549 8.00176038 7.5 9.375 C7.79898193 10.08946289 8.09796387 10.80392578 8.40600586 11.54003906 C9.29168647 13.68560454 10.15110795 15.83964295 11 18 C11.46535156 19.18335938 11.93070313 20.36671875 12.41015625 21.5859375 C15.24352623 29.36569913 15.24352623 29.36569913 14.16015625 32.1875 C13.77730469 32.785625 13.39445312 33.38375 13 34 C12.62875 34.7425 12.2575 35.485 11.875 36.25 C11.58625 36.8275 11.2975 37.405 11 38 C9 37 9 37 7.6328125 33.28125 C7.12414069 31.6894262 6.62188896 30.09554109 6.125 28.5 C4.08273052 22.13749685 1.9039843 16.031352 -1 10 C-1.23074219 11.1859375 -1.46148437 12.371875 -1.69921875 13.59375 C-3.44535821 22.33989987 -5.42776401 30.85273835 -8.20263672 39.33081055 C-11.72578775 49.95864523 -11.72578775 49.95864523 -13 61 C-13.66 61 -14.32 61 -15 61 C-15.33 61.66 -15.66 62.32 -16 63 C-15.41522768 57.56532422 -14.46714597 52.40593448 -13.0390625 47.125 C-12.84782806 46.39740479 -12.65659363 45.66980957 -12.45956421 44.92016602 C-11.65305123 41.85175052 -10.83497057 38.78646281 -10.01660156 35.72119141 C-9.41516664 33.46118026 -8.81902895 31.19987833 -8.2265625 28.9375 C-8.03209534 28.19693359 -7.83762817 27.45636719 -7.63726807 26.69335938 C-5.98880065 20.26852733 -4.82274217 13.80695767 -3.78662109 7.2578125 C-3.01518186 4.06287607 -2.1844719 2.40420274 0 0 Z " fill="#D1CBCB" transform="translate(163,123)"/>
<path d="M0 0 C0.33 0.66 0.66 1.32 1 2 C-4.16884997 6.21580822 -9.38126249 10.31331563 -14.8125 14.1875 C-20.46453363 18.26776023 -24.94070728 22.81494286 -29.375 28.15625 C-33.1488149 32.43807844 -37.28434312 36.19025771 -41.6875 39.8125 C-42.64011719 40.60269531 -43.59273438 41.39289063 -44.57421875 42.20703125 C-47 44 -47 44 -49 44 C-49.33 44.99 -49.66 45.98 -50 47 C-52.25745471 48.82423559 -54.5075519 50.51828544 -56.875 52.1875 C-57.5561084 52.67653809 -58.2372168 53.16557617 -58.93896484 53.66943359 C-60.31732991 54.65888775 -61.69768901 55.6455703 -63.08007812 56.62939453 C-65.61268413 58.43738666 -68.11794674 60.28179664 -70.625 62.125 C-78.77832297 68.04370853 -87.0900769 73.73429082 -95.4375 79.375 C-96.36433594 80.00148438 -97.29117188 80.62796875 -98.24609375 81.2734375 C-101.08614328 83.05400756 -103.99632111 84.51640152 -107 86 C-108.31124544 86.80217368 -109.60417963 87.63520938 -110.875 88.5 C-111.63167969 89.01175781 -112.38835937 89.52351563 -113.16796875 90.05078125 C-115.42515183 91.60434588 -117.6766888 93.16525452 -119.92578125 94.73046875 C-120.62654785 95.21644531 -121.32731445 95.70242188 -122.04931641 96.203125 C-123.44873766 97.17463461 -124.84565717 98.14976028 -126.23974609 99.12890625 C-136.42907154 106.20670111 -136.42907154 106.20670111 -140.375 105.6875 C-140.91125 105.460625 -141.4475 105.23375 -142 105 C-137.04087193 99.86376022 -137.04087193 99.86376022 -134 98 C-133.01 98.33 -132.02 98.66 -131 99 C-128.4512319 97.43454362 -126.09189238 95.82762821 -123.6875 94.0625 C-118.59583934 90.43716869 -113.52752361 87.03682866 -108.0625 84 C-96.42934138 77.51355238 -85.33004364 70.22812094 -74.765625 62.1171875 C-72.004502 60.00344644 -69.19968223 57.96527467 -66.375 55.9375 C-61.11303597 52.11470562 -56.00696711 48.15125663 -51 44 C-50.46955078 43.56123535 -49.93910156 43.1224707 -49.39257812 42.67041016 C-40.57766798 35.33382348 -32.36012372 27.5565717 -24.4296875 19.26806641 C-19.7483111 14.45321098 -14.93334212 10.22511629 -9 7 C-8.34 7 -7.68 7 -7 7 C-7 6.34 -7 5.68 -7 5 C-5.46875 3.7109375 -5.46875 3.7109375 -3.5 2.375 C-2.8503125 1.92898437 -2.200625 1.48296875 -1.53125 1.0234375 C-0.77328125 0.51683594 -0.77328125 0.51683594 0 0 Z " fill="#FBF3F2" transform="translate(190,172)"/>
<path d="M0 0 C2.99782886 1.49891443 3.14034067 3.63870501 4.26171875 6.75 C6.82804037 13.64364168 9.76772648 20.30709941 12.8125 27 C18.89400137 40.54275324 24.25587554 54.23193927 29.20703125 68.22265625 C33.940681 81.58242724 39.04333875 94.57882286 45.13183594 107.37963867 C45.68726074 108.57423706 45.68726074 108.57423706 46.25390625 109.79296875 C46.59623291 110.51766357 46.93855957 111.2423584 47.29125977 111.98901367 C48 114 48 114 47.625 117.3125 C44.49297284 122.49239107 39.66895927 124.46465686 34 126 C32.00630969 126.36920191 30.00720923 126.71325582 28 127 C28 126.34 28 125.68 28 125 C28.61875 124.773125 29.2375 124.54625 29.875 124.3125 C32.61410209 122.62070165 33.05024472 121.00755839 34 118 C34.5775 118.350625 35.155 118.70125 35.75 119.0625 C37.91403457 120.16953689 37.91403457 120.16953689 40.0625 119.8125 C42.4300832 118.81964253 43.58112996 118.16564375 45 116 C44.60080188 111.45429233 43.2612379 108.27022823 41.0625 104.3125 C37.51449238 97.57557597 34.85603977 90.58375367 32.25 83.4375 C31.82775146 82.28032471 31.40550293 81.12314941 30.97045898 79.9309082 C30.091268 77.51415991 29.21344443 75.09691377 28.33691406 72.67919922 C21.70847158 54.4376674 14.67053895 36.52247604 6.62890625 18.86328125 C0 4.21356614 0 4.21356614 0 0 Z " fill="#FCF3F3" transform="translate(230,170)"/>
<path d="M0 0 C6.11090483 -0.09945415 11.97403427 -0.0712828 18 1 C18 2.32 18 3.64 18 5 C15.8046875 7.1484375 15.8046875 7.1484375 12.875 9.375 C9.54013464 11.97164548 6.35397474 14.50056518 3.4375 17.5625 C2.633125 18.366875 1.82875 19.17125 1 20 C0.34 20 -0.32 20 -1 20 C-1 20.66 -1 21.32 -1 22 C-2.328125 23.33984375 -2.328125 23.33984375 -4.25 24.9375 C-6.93276779 27.20679462 -9.56655115 29.50670994 -12.1328125 31.90625 C-12.9367041 32.65660522 -12.9367041 32.65660522 -13.75683594 33.42211914 C-14.82844383 34.4256602 -15.8968583 35.4326231 -16.96191406 36.44311523 C-20.77930131 40 -20.77930131 40 -23 40 C-23.33 40.99 -23.66 41.98 -24 43 C-25.53125 44.5078125 -25.53125 44.5078125 -27.5 46.125 C-30.65106235 48.79214921 -33.60589411 51.55564922 -36.5 54.5 C-47.33134583 65.44378194 -47.33134583 65.44378194 -52 67 C-51.75 65.125 -51.75 65.125 -51 63 C-49.68596724 62.29605388 -48.3479743 61.63654342 -47 61 C-45.28769752 59.38025441 -43.62836738 57.7041054 -42 56 C-40.77504152 54.74587584 -39.54571426 53.49600694 -38.3125 52.25 C-37.73113281 51.65703125 -37.14976562 51.0640625 -36.55078125 50.453125 C-35 49 -35 49 -33 48 C-32.67 47.01 -32.34 46.02 -32 45 C-30.57421875 43.78125 -30.57421875 43.78125 -28.6875 42.5 C-23.7368833 38.9359115 -19.35232112 34.82000035 -14.89453125 30.67578125 C-12.52653489 28.48674278 -10.13173586 26.35251744 -7.6875 24.25 C-4.57330663 21.55317276 -1.67826848 18.69983861 1.20703125 15.76171875 C3.73588405 13.27694182 6.40946075 10.97644795 9.10546875 8.67578125 C11.14853926 6.86861166 13.07126997 4.92873003 15 3 C7.575 2.01 7.575 2.01 0 1 C0 0.67 0 0.34 0 0 Z " fill="#F8EEEE" transform="translate(397,21)"/>
<path d="M0 0 C0.66 2.31 1.32 4.62 2 7 C1.08734375 7.45826172 1.08734375 7.45826172 0.15625 7.92578125 C-6.75808413 11.53547039 -13.0851862 15.68621172 -19.42773438 20.21606445 C-22.85210355 22.63713419 -25.97775267 24.66442753 -30 26 C-27.87302788 21.61311999 -24.92488029 18.9905475 -21.265625 15.9140625 C-18.05524067 13.20184125 -14.9783029 10.34593315 -11.8828125 7.50390625 C-10 6 -10 6 -8 6 C-7.67 5.01 -7.34 4.02 -7 3 C-2.66666667 0 -2.66666667 0 0 0 Z " fill="#C05051" transform="translate(87,246)"/>
<path d="M0 0 C1 3 1 3 -0.4375 6.1875 C-1.2109375 7.5796875 -1.2109375 7.5796875 -2 9 C-3.32 9 -4.64 9 -6 9 C-6.3403125 9.9590625 -6.3403125 9.9590625 -6.6875 10.9375 C-7.3371875 11.9584375 -7.3371875 11.9584375 -8 13 C-9.65919896 13.36871088 -11.32774271 13.69595322 -13 14 C-14.485 15.0209375 -14.485 15.0209375 -16 16.0625 C-19.17098197 18.11042585 -20.34969207 18.39462788 -24 18 C-26.92094306 17.84188612 -26.92094306 17.84188612 -29.25 18.75 C-33.41663592 19.12878508 -35.53230051 17.24380555 -39 15 C-38.34 13.68 -37.68 12.36 -37 11 C-37 12.32 -37 13.64 -37 15 C-36.4225 15.144375 -35.845 15.28875 -35.25 15.4375 C-33.16666667 15.95833333 -31.08333333 16.47916667 -29 17 C-28.34 16.01 -27.68 15.02 -27 14 C-25.33333333 13 -23.66666667 12 -22 11 C-21.34 10.01 -20.68 9.02 -20 8 C-19.34 9.32 -18.68 10.64 -18 12 C-16.07690578 11.96044102 -16.07690578 11.96044102 -14 11 C-12.21620585 8.01647106 -12.21620585 8.01647106 -11 5 C-8.36 5.66 -5.72 6.32 -3 7 C-2.690625 6.030625 -2.38125 5.06125 -2.0625 4.0625 C-1 1 -1 1 0 0 Z " fill="#FAF6F5" transform="translate(119,303)"/>
<path d="M0 0 C2.74408382 2.74408382 3.88465428 6.04233134 5.375 9.5625 C7.3282604 14.15161454 9.32200431 18.66694884 11.5625 23.125 C12.86366855 26.08220125 13.00592004 26.94770631 12.625 30.3125 C9.49297284 35.49239107 4.66895927 37.46465686 -1 39 C-2.99369031 39.36920191 -4.99279077 39.71325582 -7 40 C-7 39.34 -7 38.68 -7 38 C-6.38125 37.773125 -5.7625 37.54625 -5.125 37.3125 C-2.38589791 35.62070165 -1.94975528 34.00755839 -1 31 C-0.13375 31.5259375 -0.13375 31.5259375 0.75 32.0625 C2.91403457 33.16953689 2.91403457 33.16953689 5.0625 32.8125 C7.4300832 31.81964253 8.58112996 31.16564375 10 29 C9.61302293 24.06962547 7.89258169 20.50372201 5.5625 16.1875 C2.75289346 10.84066483 0.92804735 5.98074956 0 0 Z " fill="#FAF1F1" transform="translate(265,257)"/>
<path d="M0 0 C0.66 0.33 1.32 0.66 2 1 C0.91926148 3.16147703 -0.19363264 4.41039672 -2 6 C-2.66 6 -3.32 6 -4 6 C-4.21011719 6.54398437 -4.42023438 7.08796875 -4.63671875 7.6484375 C-6.50429858 10.86987893 -9.07847454 13.15274294 -11.8125 15.625 C-12.3885498 16.15134033 -12.96459961 16.67768066 -13.55810547 17.2199707 C-18.45125439 21.62991951 -23.58000955 25.65713831 -28.84765625 29.60546875 C-32.89229983 32.67779404 -36.77483411 35.91564978 -40.66015625 39.1875 C-42.72506232 40.78702657 -44.62196365 41.94553584 -47 43 C-40.86279271 34.87722565 -32.56899244 29.14456602 -24.46484375 23.11328125 C-15.52474512 16.28936377 -7.84669657 8.02434731 0 0 Z " fill="#FBF2F1" transform="translate(251,117)"/>
<path d="M0 0 C0.99 0.33 1.98 0.66 3 1 C2.401875 1.86625 1.80375 2.7325 1.1875 3.625 C-0.82044534 6.62619944 -2.44655098 9.73775706 -4 13 C-4.33 12.34 -4.66 11.68 -5 11 C-9.64515387 13.0058619 -11.91347843 15.0620242 -15 19 C-15.99 19 -16.98 19 -18 19 C-18 17 -18 17 -16.390625 15.34375 C-15.68421875 14.7353125 -14.9778125 14.126875 -14.25 13.5 C-13.55390625 12.8915625 -12.8578125 12.283125 -12.140625 11.65625 C-10.1533448 10.11864634 -8.23402291 9.11701146 -6 8 C-5.29848848 6.6846659 -4.63474075 5.34882408 -4 4 C-2.70529025 2.62913085 -1.37849103 1.28659163 0 0 Z " fill="#B4494A" transform="translate(365,19)"/>
<path d="M0 0 C6.11090483 -0.09945415 11.97403427 -0.0712828 18 1 C18 2.32 18 3.64 18 5 C15.8046875 7.1484375 15.8046875 7.1484375 12.875 9.375 C8.60222725 12.71051937 4.72689627 16.07164987 1 20 C0.01 19.67 -0.98 19.34 -2 19 C-1.59160889 18.62190186 -1.18321777 18.24380371 -0.76245117 17.85424805 C1.09643274 16.13260958 2.95447386 14.41006414 4.8125 12.6875 C5.45509766 12.09259766 6.09769531 11.49769531 6.75976562 10.88476562 C7.38173828 10.30791016 8.00371094 9.73105469 8.64453125 9.13671875 C9.21534424 8.60780029 9.78615723 8.07888184 10.37426758 7.53393555 C11.94464737 6.05222715 13.47331201 4.52668799 15 3 C7.575 2.01 7.575 2.01 0 1 C0 0.67 0 0.34 0 0 Z " fill="#F9EFEE" transform="translate(397,21)"/>
<path d="M0 0 C0.33 0.66 0.66 1.32 1 2 C1.66 2 2.32 2 3 2 C3.375 4.1875 3.375 4.1875 3 7 C0.25 9.5 0.25 9.5 -1.40625 10.73046875 C-3.25739012 12.1088358 -3.25739012 12.1088358 -5.25 14.8125 C-5.8275 15.534375 -6.405 16.25625 -7 17 C-7.66 17 -8.32 17 -9 17 C-8.44271087 13.65626525 -7.64826111 10.96687001 -6 8 C-5.01 8 -4.02 8 -3 8 C-2.67 6.68 -2.34 5.36 -2 4 C-1.34 4 -0.68 4 0 4 C0 2.68 0 1.36 0 0 Z " fill="#AE2424" transform="translate(355,68)"/>
<path d="M0 0 C-0.33 0.99 -0.66 1.98 -1 3 C-1.63421875 3.23460937 -2.2684375 3.46921875 -2.921875 3.7109375 C-5.71511557 5.44358673 -6.00172894 7.42097828 -6.7734375 10.5078125 C-6.93070312 11.20648438 -7.08796875 11.90515625 -7.25 12.625 C-7.42273438 13.33140625 -7.59546875 14.0378125 -7.7734375 14.765625 C-8.19699243 16.5069064 -8.60045497 18.2530531 -9 20 C-10.5078125 18.8125 -10.5078125 18.8125 -12 17 C-12.1796875 14.625 -12.1796875 14.625 -11.875 12 C-11.78992188 11.13375 -11.70484375 10.2675 -11.6171875 9.375 C-10.42413796 4.78402457 -4.79005992 0 0 0 Z " fill="#C1B4B4" transform="translate(109,243)"/>
<path d="M0 0 C0.66 0 1.32 0 2 0 C2 2 2 2 0.671875 3.33984375 C0.03765625 3.86707031 -0.5965625 4.39429688 -1.25 4.9375 C-3.93276779 7.20679462 -6.56655115 9.50670994 -9.1328125 11.90625 C-9.66874023 12.40648682 -10.20466797 12.90672363 -10.75683594 13.42211914 C-11.82844383 14.4256602 -12.8968583 15.4326231 -13.96191406 16.44311523 C-17.77930131 20 -17.77930131 20 -20 20 C-20.33 20.99 -20.66 21.98 -21 23 C-21.99 22.67 -22.98 22.34 -24 22 C-19.21177648 16.9176194 -14.03691594 12.52274575 -8.59375 8.15625 C-6.40475724 6.33648493 -4.40831507 4.48560194 -2.4375 2.4375 C-1.633125 1.633125 -0.82875 0.82875 0 0 Z " fill="#FCF5F4" transform="translate(394,41)"/>
<path d="M0 0 C0.99 0.33 1.98 0.66 3 1 C1.58531689 1.96125903 0.1681636 2.91888325 -1.25 3.875 C-2.03890625 4.40867187 -2.8278125 4.94234375 -3.640625 5.4921875 C-9.30958904 9.11506849 -9.30958904 9.11506849 -12.25 8.625 C-12.8275 8.41875 -13.405 8.2125 -14 8 C-9.04087193 2.86376022 -9.04087193 2.86376022 -6 1 C-5.01 1.33 -4.02 1.66 -3 2 C-2.01 1.34 -1.02 0.68 0 0 Z " fill="#FDFAFA" transform="translate(62,269)"/>
<path d="M0 0 C0.99 0.33 1.98 0.66 3 1 C2.67 2.32 2.34 3.64 2 5 C1.34 5 0.68 5 0 5 C-0.04898438 5.75925781 -0.09796875 6.51851562 -0.1484375 7.30078125 C-0.22320312 8.29464844 -0.29796875 9.28851563 -0.375 10.3125 C-0.47941406 11.79169922 -0.47941406 11.79169922 -0.5859375 13.30078125 C-1 16 -1 16 -3 19 C-3.33693273 12.03672362 -2.3030887 6.56654456 0 0 Z " fill="#FDFAFA" transform="translate(138,222)"/>
<path d="M0 0 C1.5625 1.75 1.5625 1.75 3 4 C2.6875 6.25 2.6875 6.25 2 8 C0.68 8.33 -0.64 8.66 -2 9 C-2.66 8.01 -3.32 7.02 -4 6 C-3.525625 5.566875 -3.05125 5.13375 -2.5625 4.6875 C-0.76313043 2.97690387 -0.76313043 2.97690387 0 0 Z " fill="#BBB0AF" transform="translate(98,311)"/>
<path d="M0 0 C0.99 0.33 1.98 0.66 3 1 C3.25 3.75 3.25 3.75 3 7 C1 9.375 1 9.375 -1 11 C-1.66 10.67 -2.32 10.34 -3 10 C-2.01 6.7 -1.02 3.4 0 0 Z " fill="#D2CECE" transform="translate(104,222)"/>
<path d="M0 0 C0.66 0.33 1.32 0.66 2 1 C2 1.66 2 2.32 2 3 C0 4.33333333 -2 5.66666667 -4 7 C-4.556875 7.7425 -5.11375 8.485 -5.6875 9.25 C-6.120625 9.8275 -6.55375 10.405 -7 11 C-7.99 11 -8.98 11 -10 11 C-10 10.34 -10 9.68 -10 9 C-8.3203125 7.34375 -8.3203125 7.34375 -6.125 5.5 C-4.00964496 3.71066742 -1.95980876 1.95980876 0 0 Z " fill="#D18B8C" transform="translate(357,27)"/>
<path d="M0 0 C0 3.64478912 -0.85802506 5.09303401 -3 8 C-4.9375 8.75 -4.9375 8.75 -7 9 C-8.11375 9.2784375 -8.11375 9.2784375 -9.25 9.5625 C-9.8275 9.706875 -10.405 9.85125 -11 10 C-7.50640535 6.40365256 -3.88901869 3.16548033 0 0 Z " fill="#BA5B5C" transform="translate(197,170)"/>
<path d="M0 0 C0.66 0 1.32 0 2 0 C1.34 3.3 0.68 6.6 0 10 C-0.99 9.01 -1.98 8.02 -3 7 C-2.75546876 3.65807308 -2.39456443 2.39456443 0 0 Z " fill="#BBB3B2" transform="translate(112,204)"/>
<path d="M0 0 C1.98 0.99 3.96 1.98 6 3 C5.01 4.485 5.01 4.485 4 6 C0.875 6.1875 0.875 6.1875 -2 6 C-1.34 4.02 -0.68 2.04 0 0 Z " fill="#BBB7B7" transform="translate(264,288)"/>
<path d="M0 0 C0.33 0.99 0.66 1.98 1 3 C1.66 3.33 2.32 3.66 3 4 C1.71937515 5.7074998 0.38232443 7.37373596 -1 9 C-1.66 9 -2.32 9 -3 9 C-2.44271087 5.65626525 -1.64826111 2.96687001 0 0 Z " fill="#CB7F7F" transform="translate(349,76)"/>
<path d="M0 0 C0.9659657 2.60810739 1.02770914 3.89420147 0.3125 6.625 C-1.16625774 9.30084735 -2.17750049 9.96508351 -5 11 C-4.54658132 9.72740489 -4.08704773 8.45698757 -3.625 7.1875 C-3.36976563 6.47980469 -3.11453125 5.77210937 -2.8515625 5.04296875 C-2 3 -2 3 0 0 Z " fill="#CD7877" transform="translate(244,53)"/>
<path d="M0 0 C1.32 0.66 2.64 1.32 4 2 C3.67 3.32 3.34 4.64 3 6 C1.35 6 -0.3 6 -2 6 C-1.34 4.02 -0.68 2.04 0 0 Z " fill="#BDB5B5" transform="translate(108,308)"/>
<path d="M0 0 C1.27351308 2.54702616 0.80191925 3.4282945 0.0625 6.125 C-0.13214844 6.84945312 -0.32679688 7.57390625 -0.52734375 8.3203125 C-0.76130859 9.15175781 -0.76130859 9.15175781 -1 10 C-1.268125 9.38125 -1.53625 8.7625 -1.8125 8.125 C-2.95556848 5.7004767 -2.95556848 5.7004767 -6 4 C-4.02 2.68 -2.04 1.36 0 0 Z " fill="#C35C5D" transform="translate(137,222)"/>
<path d="M0 0 C0.33 0.99 0.66 1.98 1 3 C-1.80804268 5.96404505 -4.18315774 8.44499019 -8 10 C-5.83735988 6.01618925 -3.28788824 3.11016455 0 0 Z " fill="#C56B6B" transform="translate(302,82)"/>
<path d="M0 0 C2.475 0.99 2.475 0.99 5 2 C5 2.66 5 3.32 5 4 C2.64561267 5.42944945 1.51967567 6.08661261 -1.25 5.625 C-1.8275 5.41875 -2.405 5.2125 -3 5 C-2.34 5 -1.68 5 -1 5 C-0.67 3.35 -0.34 1.7 0 0 Z " fill="#C1B5B4" transform="translate(253,293)"/>
<path d="M0 0 C0.33 1.32 0.66 2.64 1 4 C-0.98 5.32 -2.96 6.64 -5 8 C-5.66 7.67 -6.32 7.34 -7 7 C-4.66666667 4.66666667 -2.33333333 2.33333333 0 0 Z " fill="#C87778" transform="translate(64,264)"/>
<path d="M0 0 C11.52164009 -0.3690205 11.52164009 -0.3690205 17 2 C16.34 2.66 15.68 3.32 15 4 C14.38125 3.690625 13.7625 3.38125 13.125 3.0625 C8.81197706 1.5960722 4.5240004 1.33380974 0 1 C0 0.67 0 0.34 0 0 Z " fill="#DBA4A4" transform="translate(397,21)"/>
<path d="M0 0 C0.99 0.33 1.98 0.66 3 1 C3 1.66 3 2.32 3 3 C0.69 4.32 -1.62 5.64 -4 7 C-3.43628586 3.73045798 -2.50037734 2.17424117 0 0 Z " fill="#B32E30" transform="translate(74,257)"/>
<path d="M0 0 C0.66 0.33 1.32 0.66 2 1 C-0.3125 3.5 -0.3125 3.5 -3 6 C-3.99 6 -4.98 6 -6 6 C-6 5.34 -6 4.68 -6 4 C-4.03852126 2.61061923 -2.03833424 1.2739589 0 0 Z " fill="#E2BCBD" transform="translate(56,270)"/>
<path d="M0 0 C0.99 0.33 1.98 0.66 3 1 C-0.465 3.97 -0.465 3.97 -4 7 C-4 4 -4 4 -2 1.8125 C-1.34 1.214375 -0.68 0.61625 0 0 Z " fill="#FCF6F5" transform="translate(147,209)"/>
<path d="M0 0 C0 3 0 3 -2.5 5.6875 C-3.325 6.450625 -4.15 7.21375 -5 8 C-5.66 7.67 -6.32 7.34 -7 7 C-4.69 4.69 -2.38 2.38 0 0 Z " fill="#CB8A88" transform="translate(317,67)"/>
<path d="M0 0 C-0.99 0 -1.98 0 -3 0 C-3.103125 0.639375 -3.20625 1.27875 -3.3125 1.9375 C-3.539375 2.618125 -3.76625 3.29875 -4 4 C-4.99 4.33 -5.98 4.66 -7 5 C-6.625 2.5625 -6.625 2.5625 -6 0 C-3.50907189 -1.24546405 -2.58919267 -0.7767578 0 0 Z " fill="#BA5959" transform="translate(383,22)"/>
<path d="M0 0 C0.99 0.33 1.98 0.66 3 1 C1.35 2.65 -0.3 4.3 -2 6 C-2.33 5.01 -2.66 4.02 -3 3 C-2.01 2.01 -1.02 1.02 0 0 Z " fill="#C5686A" transform="translate(365,19)"/>
</svg>
